<?xml version="1.0" encoding="utf-8"?>
<!-- Generator: Adobe Illustrator 24.0.0, SVG Export Plug-In . SVG Version: 6.00 Build 0)  -->
<svg version="1.1"
	 id="Layer_1" inkscape:version="0.92.4 (f8dce91, 2019-08-02)" sodipodi:docname="logo-h.svg" xmlns:cc="http://creativecommons.org/ns#" xmlns:dc="http://purl.org/dc/elements/1.1/" xmlns:inkscape="http://www.inkscape.org/namespaces/inkscape" xmlns:rdf="http://www.w3.org/1999/02/22-rdf-syntax-ns#" xmlns:sodipodi="http://sodipodi.sourceforge.net/DTD/sodipodi-0.dtd" xmlns:svg="http://www.w3.org/2000/svg"
	 xmlns="http://www.w3.org/2000/svg" xmlns:xlink="http://www.w3.org/1999/xlink" x="0px" y="0px" viewBox="0 0 166 45"
	 style="enable-background:new 0 0 166 45;" xml:space="preserve">
<style type="text/css">
	.st0{display:none;}
	.st1{fill:#020202;}
	.st2{fill:#080808;}
	.st3{fill:#070808;}
	.st4{fill:#1A1B1A;}
	.st5{fill:#FFFFFF;}
	.st6{fill:#F29226;}
	.st7{fill:#FECC76;}
	.st8{fill:#F39322;}
	.st9{fill:#F29922;}
	.st10{fill:#E4E1C3;}
	.st11{fill:#E0932B;}
	.st12{fill:#F7BF63;}
	.st13{fill:#CC8642;}
	.st14{fill:#E79A36;}
	.st15{fill:#CA8B41;}
	.st16{fill:#DC8E3B;}
	.st17{fill:#DB9536;}
	.st18{fill:#B07940;}
	.st19{fill:#E19729;}
	.st20{fill:#CA794B;}
	.st21{fill:#DC8B3B;}
	.st22{fill:#663A1F;}
	.st23{fill:#CB973E;}
	.st24{fill:#EBE0B7;}
	.st25{fill:#A26D2C;}
	.st26{fill:#CF9433;}
	.st27{fill:#C38548;}
	.st28{fill:#E9CD8B;}
	.st29{fill:#CA8F66;}
	.st30{fill:#C48844;}
	.st31{fill:#F29722;}
	.st32{fill:#F19A24;}
	.st33{fill:#F59B2E;}
	.st34{fill:#F9AA42;}
	.st35{fill:#F68B2E;}
	.st36{fill:#E29C28;}
	.st37{fill:#DB9C2B;}
	.st38{fill:#FADD97;}
	.st39{fill:#F8F0B8;}
	.st40{fill:#F6BF67;}
	.st41{fill:#F6EBA2;}
	.st42{fill:#F8E5AC;}
	.st43{fill:#FBEFB1;}
	.st44{fill:#F2AA47;}
	.st45{fill:#FEDB8C;}
	.st46{fill:#FEF3A6;}
	.st47{fill:#FFE9BB;}
	.st48{fill:#FCD587;}
	.st49{fill:#F39225;}
	.st50{fill:#ED9C23;}
	.st51{fill:#EC9636;}
	.st52{fill:#F69033;}
	.st53{fill:#F39636;}
	.st54{fill:#F59323;}
	.st55{fill:#F49621;}
	.st56{fill:#F6902A;}
	.st57{fill:#F8EEAA;}
	.st58{fill:#FAB655;}
	.st59{fill:#F5C672;}
	.st60{fill:#F6BC57;}
	.st61{fill:#F9AB43;}
	.st62{fill:#F59025;}
	.st63{fill:#F29622;}
	.st64{fill:#F49535;}
	.st65{fill:#FAA440;}
	.st66{fill:#F9A257;}
	.st67{fill:#EA9C5B;}
	.st68{fill:#F79225;}
	.st69{fill:#F09522;}
	.st70{fill:#F89E1D;}
	.st71{fill:#F59622;}
	.st72{fill:#F29628;}
	.st73{fill:#EAA323;}
	.st74{fill:#C69668;}
	.st75{fill:#EB9D23;}
	.st76{fill:#F9DD88;}
	.st77{fill:#F59226;}
	.st78{fill:#DD8631;}
	.st79{fill:#E49D4F;}
	.st80{fill:#EB984B;}
	.st81{fill:#F0E09D;}
	.st82{fill:#F5B34D;}
	.st83{fill:#FDC868;}
	.st84{fill:#F1A036;}
	.st85{fill:#FBE5A1;}
	.st86{fill:#F5E99A;}
	.st87{fill:#EFA23E;}
	.st88{fill:#F29B27;}
	.st89{fill:#F3AC44;}
	.st90{fill:#F8A944;}
	.st91{fill:#F7942E;}
	.st92{fill:#F7994D;}
	.st93{fill:#F69126;}
	.st94{fill:#F49431;}
	.st95{fill:#F1A438;}
	.st96{fill:#F29422;}
	.st97{fill:#F7B63F;}
	.st98{fill:#BF7E39;}
	.st99{fill:#F7B057;}
	.st100{fill:#F39520;}
	.st101{fill:#0A0A0A;}
	.st102{fill:#0B0C0C;}
	.st103{fill:#090909;}
	.st104{fill:#0C0C0C;}
	.st105{fill:#E5DFBF;}
	.st106{fill:#E2AF5D;}
	.st107{fill:#EEC68B;}
	.st108{fill:#FBCD80;}
	.st109{fill:#FACC5A;}
	.st110{fill:#F6C55B;}
	.st111{fill:#FBE790;}
	.st112{fill:#E5DAA4;}
	.st113{fill:#FACE74;}
</style>
<sodipodi:namedview  bordercolor="#666666" borderopacity="1" gridtolerance="10" guidetolerance="10" id="namedview66643" inkscape:current-layer="Layer_1" inkscape:cx="63.355776" inkscape:cy="22.763481" inkscape:pageopacity="0" inkscape:pageshadow="2" inkscape:snap-grids="true" inkscape:snap-to-guides="true" inkscape:window-height="836" inkscape:window-maximized="1" inkscape:window-width="1600" inkscape:window-x="0" inkscape:window-y="27" inkscape:zoom="6.3429549" objecttolerance="10" pagecolor="#ffffff" showgrid="false">
	</sodipodi:namedview>
<rect id="rect58446" x="12" y="-799.4" class="st0" width="462" height="362.1"/>
<g id="g75141" transform="matrix(0.20203853,0,0,0.20203853,27.923471,-123.49811)">
	<path id="path58448" inkscape:connector-curvature="0" d="M567.7,746.3c-0.2-10.3,0.8-23.2-1.8-36c-2.5-12.1-7.9-22.1-20-26.5
		c-20.8-7.6-41.8-7.6-62.2,1.7c-5.8,2.6-8.4,7.7-9,13.8c-0.2,2.7,0,5.6,0,8.4c0,12,9.8,18.3,20.7,13.6c3.9-1.8,7.5-4,11.2-6.3
		c4-2.4,8.3-2,12.5-0.8c5.2,1.5,4.4,5.8,4.3,9.8c-0.1,3.9-3.1,4-6,4c-7.5,0-14.9,0.2-22.2,1.8c-12.1,2.5-22.8,7.1-27.3,19.4
		c-5.1,13.8-3.9,27.5,6.2,39.1c13,14.9,41.1,19.5,57.7,9.1c6.2-3.8,11.7-5.3,18.8-4.9c11.6,0.7,17-4.9,17.3-16.3
		C567.9,766.9,567.7,757.9,567.7,746.3L567.7,746.3z M515.7,770.1c-4.6,0.6-6.2-2.4-6.2-6.4c0-4.3,1.9-6.5,6.6-6.3
		c5.4,0.2,9.9,3,9.8,6.5C525.9,767.4,521.5,770.2,515.7,770.1z"/>
	<path id="path58450" inkscape:connector-curvature="0" class="st1" d="M-81.2,717.4c0-29.8,0-59.5,0-89.3c0-7.2,1.2-8.5,8.5-8.5
		c14.6,0,29.2,0,43.8,0c0.7,0,1.5,0,2.1,0c4.3,0.2,7.5,2.5,8,6.5c0.7,4.4-2.6,6.6-6.4,8.2c-2.7,1.1-5.6,0.7-8.3,0.9
		c-6.3,0.7-14-2.8-18.3,1.7c-4.4,4.5-1.5,12.2-1.5,18.5c-0.1,42.1-0.1,84.3-0.1,126.4c0,1.3,0,2.6,0,3.9c0.4,11.4,2.7,14,14.1,15.3
		c4,0.4,8.2,0.2,12.4,0.4c4.6,0.1,6.5,2.5,6.5,7.2c0,4.6-1.7,7.2-6.4,7.3c-15.9,0.1-31.8,0.1-47.7,0c-5.2,0-7-2.8-7-8
		C-81,777.5-81.2,747.4-81.2,717.4L-81.2,717.4z"/>
	<path id="path58452" inkscape:connector-curvature="0" class="st1" d="M626.2,727.6c0,29.6,0,59.2,0,88.8c0,7.5-1.7,9.3-9.2,9.3
		c-14.3,0-28.4,0-42.7-0.1c-1.3,0-2.6-0.2-3.9-0.4c-3.7-0.7-6.3-2.6-6.4-6.5c-0.2-4.3,2.1-6.6,6-7.6c5.7-1.7,11.6-0.6,17.4-0.6
		c10.4-0.1,10.9-0.4,10.9-10.7c0-46.7,0-93.6,0-140.5c0-11.1-3.4-14.8-14.6-15.4c-4.4-0.2-8.5-0.2-12.9-0.6
		c-4.9-0.1-5.8-3.8-5.8-7.5c0-3.8,1.5-7,6.3-7c16.3,0,32.7,0,49,0c5.1,0,6.3,3.3,6.3,7.5c0,10.9,0,21.8,0,32.7
		C626.2,688.7,626.2,708.1,626.2,727.6L626.2,727.6z"/>
	<path id="path58454" inkscape:connector-curvature="0" class="st2" d="M2.3,725c0-18.8,0-37.5,0-56.1c0-3.6-0.8-6.3-3.7-8.9
		c-6.2-5.4-4.6-12.7-3.1-19.4c1.3-5.8,5.4-9.2,11.6-9.9c8.5-1.1,17.3-0.9,25.8-0.2c9.3,0.8,14,7,14.1,17.6c0.1,19.8,0,39.3,0,59
		c0,1.8-1.3,4.3,0.8,5.1c2.7,0.9,3-2.1,4-3.7c4.5-6.3,8.8-12.7,13.1-18.9c7-9.8,24.7-13.8,35.5-8.3c7.1,3.7,9.1,11.7,4.3,19.2
		c-6.4,9.9-13.1,19.5-20.1,29c-2.8,3.9-3.3,6.7,0.1,10.8c10.3,12,20.5,24.4,30.4,36.7c5.4,7,4,15.1-2.6,19.5c-1.2,0.8-2.6,1.5-4,1.8
		c-8.8,1.7-17.5,1.7-26.2-0.2c-4.4-0.9-7.3-4.4-10.1-7.7c-7-8.5-14-17-21.1-25.6c-0.9-1.2-1.9-3.4-3.8-2.6c-2,0.8-1.2,2.8-1.2,4.5
		c0,5.3,0,10.4,0,15.7c-0.1,10.4-3.9,15.3-14.3,16.6c-5.2,0.7-10.4,0.6-15.6-0.1c-9.5-1.2-14-6.6-14-16.4
		C2.3,763.2,2.3,744.2,2.3,725L2.3,725L2.3,725z"/>
	<path id="path58456" inkscape:connector-curvature="0" class="st3" d="M233.7,725.3c0-19.2,0-38.2,0-57.4c0-3-0.6-5.3-3-7.5
		c-6.5-5.7-5.6-13-3.7-20.2c1.8-7,7.2-9.8,14-10.1c7.5-0.2,14.9-0.6,22.5-0.1c9.7,0.6,15.1,7.1,15.1,17.5c0,20,0,40.1,0,60.2
		c0,1.5-0.9,3.8,1.2,4.4c1.8,0.4,2.4-1.7,3.1-2.8c4.4-6.3,8.8-12.7,13-18.9c7.2-10.4,24.9-14.9,36.3-9.3c7.1,3.6,9,12.1,3.9,19.9
		c-6.6,9.9-13.5,19.9-20.5,29.5c-2.6,3.6-2.5,5.8,0.6,9.2c10.1,11.6,19.8,23.7,29.5,35.4c4,4.7,6,10.2,3.4,16.1
		c-2.6,6-8.2,7.9-14.3,8c-4.4,0.1-8.5,0.1-12.9,0c-6.6-0.2-12.4-2.4-16.7-7.7c-7-8.5-14.1-17-21.2-25.4c-1.3-1.7-2.5-4.6-4.9-3.8
		c-2.5,0.8-1.1,3.7-1.1,5.6c-0.1,5.1,0,10.1-0.1,15.3c0,9.7-4.7,15.3-14.3,16.1c-5.2,0.4-10.4,0.4-15.6-0.2c-9.5-1.2-14-6.7-14-16.4
		C233.7,763.3,233.7,744.4,233.7,725.3z"/>
	<path id="path58496" inkscape:connector-curvature="0" class="st4" d="M457.6,761.1c0-13.6,0-27.2,0.1-40.8
		C460.7,734,460.9,747.6,457.6,761.1z"/>
	<path id="path58664" inkscape:connector-curvature="0" class="st4" d="M457.9,720.4c-2.8-5.4-4.9-11.2-6.7-17.2
		C454.9,708.3,457.4,714,457.9,720.4z"/>
	<path id="path58818" inkscape:connector-curvature="0" class="st4" d="M449.9,779.2c0-3.6,1.7-6.2,4.5-8
		C454,774.5,451.9,776.9,449.9,779.2z"/>
	<path id="path58820" inkscape:connector-curvature="0" class="st4" d="M454.3,771.4c0.7-3.6,0.8-7.3,3.3-10.3
		C457.9,765,456.7,768.3,454.3,771.4z"/>
	<path id="path58898" inkscape:connector-curvature="0" class="st4" d="M446.4,783.7c0-2.5,1.3-3.8,3.6-4.5
		C449.2,781.1,448.3,782.7,446.4,783.7z"/>
	<path id="path58928" inkscape:connector-curvature="0" class="st5" d="M8.2,724.4c0-19.2-0.1-38.2,0-57.4c0-4.3-1.1-7.6-4.5-10.3
		c-5.4-4.3-3.7-9.9-2.5-14.9c1.2-5.2,5.7-5.8,10.3-5.8c6.2,0,12.4-0.1,18.5,0c7.7,0.1,11,3.3,11,11c0.1,26.3,0.1,52.4,0.1,78.7
		c0,1.7-1.1,4.3,1.3,4.7c1.9,0.4,2.6-1.9,3.4-3.3c7.7-11.1,15.6-22.5,23.4-33.7c5.3-7.7,20.4-11.6,28.9-7.3
		c4.3,2.1,4.7,7.5,1.2,12.7c-7.5,10.8-14.9,21.4-22.7,32.1c-2.5,3.4-2.4,5.4,0.4,8.5c11,12.8,21.7,25.8,32.3,38.7
		c2.7,3.3,4.6,6.5,2.6,10.8c-1.9,3.8-5.7,4.4-9.7,4.3c-21.7-0.2-18.1,2-32.8-15.7c-5.8-7.1-11.7-14.1-17.5-21.2
		c-2.1-2.7-4.7-5.2-8.5-3.9c-3.7,1.2-2.8,4.7-2.8,7.7c0,7.6,0,15.4,0,23.1c0,6.4-2.6,9.5-8.9,9.9c-4.9,0.4-9.8,0.2-14.6-0.1
		c-6.3-0.6-8.8-3.8-8.8-10.8C8.2,763,8.3,743.7,8.2,724.4C8.3,724.4,8.2,724.4,8.2,724.4L8.2,724.4z"/>
	<path id="path58930" inkscape:connector-curvature="0" class="st5" d="M239.8,724.3c0-18.9-0.1-37.7,0-56.8c0-4.5-1.1-8-4.6-10.9
		c-5.3-4.3-3.6-9.8-2.4-15.1c1.2-4.9,5.6-5.6,9.9-5.7c6.2-0.1,12.4-0.1,18.5,0c8.3,0.1,11.4,3.3,11.6,11.7c0,20.4,0,40.9,0,61.3
		c0,6,0,12,0.1,18c0,1.2-0.7,2.8,0.9,3.4c1.9,0.7,2.5-1.2,3.3-2.5c7.9-11.4,15.7-22.8,23.7-34.2c5.6-8.2,19.8-12,28.6-7.6
		c4.5,2.1,5.3,7.1,1.7,12.5c-7.5,10.8-14.9,21.7-22.7,32.1c-2.6,3.4-2.7,5.7,0.2,9.1c11.1,12.9,21.8,26.3,32.8,39.2
		c2.6,3,3.7,6.2,2.4,9.8c-1.5,3.7-4.9,4.4-8.4,4.4c-4.7,0.1-9.3,0.1-14,0.1c-5.4,0-9.5-2.6-12.9-6.7c-8.2-10.1-16.4-20-24.7-29.9
		c-1.1-1.2-2.1-2.6-3.6-3.6c-4-2.6-8-0.6-8,4.4c-0.1,8.3,0,16.4,0,24.7c0,8.2-3,11-11.2,11c-2.8,0-5.6,0-8.4,0
		c-9.7,0-12.7-2.8-12.7-12.8C239.8,761.8,239.8,743.1,239.8,724.3L239.8,724.3L239.8,724.3z"/>
	<path id="path58932" inkscape:connector-curvature="0" class="st6" d="M557.3,784.5c-3,2.7-6.4,2-9.8,1.2
		c-4.9-2.6-9.2-1.3-13.5,1.8c-3.4,2-6.4,5.2-10.9,3.8c-0.8-0.2-1.5-0.8-1.7-1.8c1.7-2.6,4.9-4.7,1.2-8.4c-1.7-1.8,0.7-3.1,2.5-3.9
		c2.4-0.7,4.3,0.1,6.2,1.3c2,1.3,4.3,1.9,6.5,0.1c1.1-0.8,1.7-1.9,1.5-3.3c0.1-1.9,0-3.9,1.2-5.7c1.2-0.9,2.6-0.9,4-0.4
		c1.7,0.9,1.7,2.5,1.9,4c0.2,2,0.6-0.4,0.9-0.1c4.4-0.8,6.2,3.4,9.2,4.9C559.2,780,557.7,782.4,557.3,784.5L557.3,784.5z"/>
	<path id="path58934" inkscape:connector-curvature="0" class="st7" d="M557.3,784.5c-1.3-1.8,1.1-3.9-0.8-5.6c-2.1-3-6.4-4-7.1-8.3
		c-0.4-13.6,0-27.2-0.1-40.8c0-2.1,0.1-4.5-0.6-6.6c-0.6-2.4-0.8-4.7,0.6-7c4.5-0.6,2.5,3.7,3.8,5.3c0.4,1.3,0.4,2.6,0.4,3.9
		c0,12.7,0,25.3,0,37.9c0,2.4-0.4,4.9,1.2,7c1.8,1.3,2.6,3.4,4.3,4.7c-0.8-3.1-0.4-6.2-0.7-9.2c-0.1-1.7,0-3.1,0-4.7
		c0-11.8,0-23.7,0-35.5c0-1.7-0.1-3.4,0-5.1c0.1-2.4-0.1-4.6,0.2-6.7c0.2-0.9,0.6-1.9,1.5-2.5c1.5,3.3,1.1,6.7,1.3,10.3
		c0.2,14.8,0.2,29.5,0,44.3c0.4,2.8,0.6,5.8,0,8.8c0.2,0.9,0.2,2,0,3C561.5,781,559.2,782.6,557.3,784.5L557.3,784.5z"/>
	<path id="path58936" inkscape:connector-curvature="0" class="st8" d="M490.2,688.9c0.2-0.1,0.7-0.1,0.9,0c3.4-0.8,7-1.5,10.4-1.3
		c3.3,0.8,4.7,1.9,0.9,4.3c-1.2,0.8-2.6,1.5-3.8,2.4c-2.5,0.7-4,1.9-4.4,4.9c-0.1,2.1-1.7,4-2.6,6c-0.6,1.9-4.7-0.7-3.9,3.1
		c0.2,2.5,0.6,4.9-2.8,5.3c-1.3-0.2-2.4-0.8-3-2c-1.1-3.3-0.7-6.6-0.4-10.1c0.6-2,3.3-1.9,3.8-3.9c0.2-1.7,0.1-3.1,0.7-4.7
		C486.6,690.6,488.7,690.3,490.2,688.9z"/>
	<path id="path58938" inkscape:connector-curvature="0" class="st9" d="M478.7,784.7c-1.9-0.9-2.4-2.8-3.3-4.5
		c-0.1-4.6-4.5-8.3-2.7-13.1c2.4,2.1,4.6-1.3,7,0c1.9,1.1,3.1,2.6,3.7,4.6c0.9,3.8,1.3,7.7,4.6,10.7c1.7,1.3,2.6,3.6,1.2,5.8
		c-0.7,0.6-1.3,0.8-2.4,0.9c-0.8,0-1.7-0.1-2.4-0.7C482.8,787,482.4,783.3,478.7,784.7L478.7,784.7z"/>
	<path id="path58940" inkscape:connector-curvature="0" class="st10" d="M560,711.5c-0.1,0.8-0.2,1.5-0.4,2.4
		c-3.3-1.9-5.1-5.3-6.5-8.4c-1.8-3.6-3.7-6.7-6.3-9.8c-0.2-0.8-0.2-1.8,0-2.6c0.6-0.8,1.2-1.3,2.1-0.8
		C555.7,696.9,559.2,703.5,560,711.5z"/>
	<path id="path58942" inkscape:connector-curvature="0" class="st11" d="M522.8,790.2c4.5,1.1,7.6-1.9,11.2-3.4
		c1.1-0.6,1.2,0,1.1,0.9c-9,7.5-19.1,10.7-30.5,8.3c1.1-1.7,2.8-1.5,4.4-2C513.7,793.4,518.6,793,522.8,790.2z"/>
	<path id="path58944" inkscape:connector-curvature="0" class="st12" d="M529.5,685.6c2.5-0.1,4.7,0,7,1.1c-0.1,0.2-0.2,0.4-0.6,0.6
		c-1.7,1.1-3.6,0.7-5.2,1.2c-1.2,3.6,4.3,4.3,3.3,7.6c-0.7,0.6-1.5,0.8-2.4,0.8c-1.5,0.1-3,0-4.4-0.6c-3.6-3-5.1-7.7-9-10.3
		c-0.4-0.2,0.2-0.9,0.8-1.1C522.5,685.2,526,684.6,529.5,685.6L529.5,685.6z"/>
	<path id="path58946" inkscape:connector-curvature="0" class="st13" d="M473.2,766.5c-0.7,4.7,3.7,8.8,2.1,13.6
		c-5.8-9-6.3-18.5-2.5-28.4c0.2,0.2,0.6,0.4,0.8,0.7C475.3,757.3,475.8,762,473.2,766.5z"/>
	<path id="path58948" inkscape:connector-curvature="0" class="st14" d="M529.5,685.6c-3.7,0.1-7.3,0.1-11,0.2
		c-3.1,2.4-7,0.7-10.2,1.7c-1.1,0.2-2,0.4-3.1,0.4c-0.9,0-1.9,0.2-2.6,1.1c-3.8,0-7.6,0-11.4,0C503.4,683.2,516.4,683.8,529.5,685.6
		z"/>
	<path id="path58950" inkscape:connector-curvature="0" class="st6" d="M561.4,766.2c0-14.8,0-29.6,0-44.3
		C561.9,736.7,561.9,751.4,561.4,766.2z"/>
	<path id="path58952" inkscape:connector-curvature="0" class="st15" d="M473,751.9c1.8-6.7,6.3-11,12.8-13.4
		c0.6-0.4,0.9-0.2,1.3,0.1c0.7,2.5-1.1,3.7-2.7,4.7c-1.7,0.9-2.8,2.1-3.7,3.9c-1.2,1.7-2.8,3-4.4,4.4c-0.8,0.7-1.8,1.1-2.8,0.6
		C473.2,752.2,473.1,752,473,751.9L473,751.9z"/>
	<path id="path58954" inkscape:connector-curvature="0" class="st16" d="M482.4,711.4c0.7,0.4,1.5,0.8,2.1,1.2
		c4,0.4,7.7-0.7,11.2-2.6c1.9-1.1,3.7-2.5,6.2-1.2c1.2,1.2,0.6,2-0.7,2.7c-3.6,1.7-6.4,4.5-10.4,4.9c-3.1,0.2-6.4,0.4-8.5-2.5
		C481.6,712.9,481.6,712.2,482.4,711.4L482.4,711.4z"/>
	<path id="path58956" inkscape:connector-curvature="0" class="st17" d="M503.4,734.3c1.5-0.1,3-0.2,4.6-0.4
		c5.2-0.9,10.3-0.1,15.5-0.6c0.7,0,1.2,0.1,1.8,0.6c0.6,1.5,0,2.5-1.2,3.1c-2.4,0.8-4.7,0.7-7.1,0.2c-1.5-0.4-3.1-0.8-4.7-0.7
		c-3.1,0.6-6.2,0.8-9.2,0C501.8,735.5,502.4,734.9,503.4,734.3L503.4,734.3z"/>
	<path id="path58958" inkscape:connector-curvature="0" class="st18" d="M482.4,711.4c0,0.8-0.1,1.7-0.1,2.4c-3.7-7-2.7-17.2,2-21.8
		c0.1,0.1,0.4,0.2,0.7,0.4c0.1,0.4,0.1,0.9,0.1,1.3c-0.6,1.5-1.2,3-1.5,4.6c-0.1,0.7-0.6,1.2-0.9,1.8
		C482.4,704,482.4,707.7,482.4,711.4z"/>
	<path id="path58960" inkscape:connector-curvature="0" class="st19" d="M529.5,727c0-3.7,0-7.3,0-11c0.2-0.1,0.6-0.1,0.8-0.2
		c1.2,0.4,1.5,1.3,2.1,2.4c0.7,0.9-1.1,3.8,2.1,2.8c0.8,1.3,0.7,2.7,0.1,4c-1.8,1.7-1.8,5.2-5.4,4.6
		C528.9,728.7,528.9,727.8,529.5,727L529.5,727z"/>
	<path id="path58962" inkscape:connector-curvature="0" class="st20" d="M503.4,734.3c-0.4,0.7-0.7,1.2-1.1,1.9
		c-0.6,0.7-1.3,1.1-2.1,1.2c-2.6,0.1-5.1,0.6-7.2,1.9c-2,0.6-4.3,0.8-6-0.7c-0.4,0-0.8-0.1-1.2-0.1
		C491.2,735.2,497.3,734.5,503.4,734.3L503.4,734.3z"/>
	<path id="path58964" inkscape:connector-curvature="0" class="st21" d="M535.1,787.8c-0.4-0.2-0.7-0.6-1.1-0.9
		c4.6-4.4,10.1-4.7,13.5-1.1C543.3,785.8,538.9,785.7,535.1,787.8z"/>
	<path id="path58966" inkscape:connector-curvature="0" class="st22" d="M501.3,711.4c0.4-0.7,0.9-1.3,1.3-2
		c0.1-0.2,0.2-0.4,0.2-0.7c1.3-1.3,3-2,4.6-2.7c1.1-0.2,2-0.4,3.1-0.4c2.1,0,4.4-0.1,6.5,0.1c0.6,0,1.1,0.1,1.7,0.4
		c1.2,0.4,2.6,0.8,3.7,1.7c0.2,0.2,0.4,0.7,0.4,0.9s-0.1,0.6-0.1,0.6C515.5,707.5,508.3,708.3,501.3,711.4L501.3,711.4z"/>
	<path id="path58968" inkscape:connector-curvature="0" class="st23" d="M522.9,709.3c0-0.2,0-0.7-0.1-0.9c0.2-0.8,0.9-1.2,1.7-1.7
		c0.6-0.2,0.9-0.2,1.5-0.2c2,0.4,3.3,1.8,4.4,3.3c0.6,1.3,0.7,2.7,0.6,4c-0.1,0.8-0.4,1.7-1.1,2.4h-0.4
		C527.6,713.4,526.6,710,522.9,709.3z"/>
	<path id="path58970" inkscape:connector-curvature="0" class="st24" d="M549.1,692.2c-0.6,0.4-1.1,0.9-1.7,1.3
		c-1.1,1.1-2.5,1.3-3.9,1.1c-0.6-0.1-1.1-0.2-1.7-0.6c-1.3-1.1-2.4-2.5-2.7-4c0-0.6,0.2-1.1,0.7-1.3c1.9-0.1,3.7,0.4,5.3,1.7
		C546,691.6,548.4,690.6,549.1,692.2L549.1,692.2z"/>
	<path id="path58972" inkscape:connector-curvature="0" class="st25" d="M524.8,733.9c-5.6,0.4-11.2,0.6-16.8,0
		c5.8-1.9,12.2,0.6,18-2.4C526.7,732.8,526,733.5,524.8,733.9z"/>
	<path id="path58974" inkscape:connector-curvature="0" class="st26" d="M478.7,784.7c4-3,4.9,0.2,5.8,3.1c-0.4,0.7-0.9,0.7-1.5,0.2
		C481.3,787.4,479.9,786.3,478.7,784.7z"/>
	<path id="path58976" inkscape:connector-curvature="0" class="st17" d="M524.8,733.9c0.4-0.7,0.8-1.5,1.2-2.1
		c1.1-1.5,2.4-3.1,3.4-4.6c0.1,0.8,0.1,1.7,0.2,2.5c0.7,4.6,0,5.3-4.6,4.5C525.1,734.1,524.8,733.9,524.8,733.9L524.8,733.9z"/>
	<path id="path58978" inkscape:connector-curvature="0" class="st27" d="M500.2,795.6c-3.4-0.1-6.4-1.1-9.2-3
		c0.1-0.2,0.2-0.4,0.6-0.7c1.9-1.1,3.8-0.9,5.8-0.4c1.3,0.6,2.1,1.7,3,2.7C500.6,794.7,500.6,795.3,500.2,795.6z"/>
	<path id="path58980" inkscape:connector-curvature="0" class="st28" d="M545.1,690.3c-1.9-0.4-3.8-0.8-5.7-1.2
		c-1.3,1.1-2.6,0.9-3.6-0.4c-0.1-0.6-0.1-1.1,0.2-1.7l0.1-0.2C539.5,687.4,543.1,687,545.1,690.3z"/>
	<path id="path58982" inkscape:connector-curvature="0" class="st29" d="M500.2,795.6c0-0.2,0-0.7,0-0.9c0.4-0.6,0.9-0.8,1.5-1.1
		c2.6-0.4,5.2-0.9,7.3,1.1c-1.2,1.7-3.1,0.9-4.7,1.2C503.1,795.9,501.8,795.8,500.2,795.6z"/>
	<path id="path58984" inkscape:connector-curvature="0" class="st30" d="M491.1,792.8c-1.8-0.1-3.4-0.8-4.5-2.4
		c0.1-0.2,0.4-0.6,0.6-0.7c2.4-0.6,4.6-1.3,4.4,2.5C491.3,792.4,491.2,792.6,491.1,792.8L491.1,792.8z"/>
	<path id="path58986" inkscape:connector-curvature="0" class="st18" d="M490.2,688.9c-1.1,1.1-2.4,2.4-3.4,3.4
		c-0.7,0.6-1.3,0.7-2,0.1c-0.1-0.1-0.4-0.4-0.6-0.6C485.8,690.3,487.7,689.1,490.2,688.9z"/>
	<path id="path58988" inkscape:connector-curvature="0" class="st6" d="M561.3,777.9c0-0.9,0-2,0-3
		C561.9,775.8,562.1,776.8,561.3,777.9z"/>
	<path id="path58990" inkscape:connector-curvature="0" class="st30" d="M483.1,788.2c0.6-0.1,1.1-0.1,1.5-0.2c0.7,0,1.5,0,2.1,0.1
		c0.6,0.6,0.7,1.2,0.2,1.9c-0.1,0.1-0.4,0.4-0.6,0.6C484.8,790.5,483.9,789.4,483.1,788.2z"/>
	<path id="path58992" inkscape:connector-curvature="0" class="st4" d="M450.4,767.7c4.4-20,5.4-39.9-2.4-59.4
		c4.9,3.9,5.8,10.1,6.5,15.4c1.2,8.9,0.8,17.8,0.2,26.7C454.8,756.2,455.3,762.7,450.4,767.7L450.4,767.7z"/>
	<path id="path58994" inkscape:connector-curvature="0" class="st4" d="M443.8,779c1.1-2.6,2.6-4.9,4.6-6.7
		C448.2,775.3,446.7,777.8,443.8,779z"/>
	<path id="path58996" inkscape:connector-curvature="0" class="st4" d="M448.4,772.1c0.1-1.9,0.9-3.4,2.1-4.6
		C451,769.6,450.8,771.4,448.4,772.1z"/>
	<path id="path59746" inkscape:connector-curvature="0" class="st31" d="M538.6,779c-2,3.8-5.3,3-7.6,0.9c-1.9-1.7-3.7-2.1-5.8-2.1
		c-0.4-2.5,3.4-2.5,2.8-4.9c0.6-1.8,2-2.8,3.3-4c2.4-2.6,1.5-5.7,1.8-8.8c-0.1-1.3-0.1-2.8,0.8-4c0.8-0.6,1.7-0.7,2.6-0.8
		c5.7,0.7,5.7,0.7,6,8.2c0,2.4,0.1,4.5-1.5,6.4c0,2.4,0,4.5,0,6.7C540.3,777.9,537.6,776.6,538.6,779L538.6,779z"/>
	<path id="path59748" inkscape:connector-curvature="0" class="st32" d="M487,790c-0.1-0.7-0.1-1.3-0.2-1.9c0.7,0,1.5,0,2.1,0
		c4.7-2.7,8.4-4,12.8,1.8c2.6,3.6,11.8,1.5,15.7-1.9c1.3-0.8,2.6-0.7,3.8,0.4c0.1,0.2,0.2,0.6,0.4,0.8c0.4,0.4,0.7,0.7,1.1,1.1
		c0,0.8,1.8,1.8,1.1,1.9c-4.9,0.4-9.3,4-14.6,2.7c-2.6,0-5.2-0.1-7.7-0.1c-1.1-0.7-2.5-1.1-3.4-2c-2.1-0.1-4.4-0.2-6.4-0.4
		C490.9,789.8,488.6,790.3,487,790L487,790z"/>
	<path id="path59750" inkscape:connector-curvature="0" class="st33" d="M528.4,773.4c3.4,4.9-3.1,2.5-3.4,4.5
		c-0.1,1.1-3.1,1.2-0.9,3.4c3.8,3.7,2.8,6.2-2.5,7.9l0,0c-0.6-1.1-0.2-2.4-0.7-3.3c-1.8-1.5-3.9-2.7-4.3-5.3c-0.6-1.3-1.9-1.1-3-1.3
		c-1.2-0.6-3-0.6-2-2.7C517,774.7,522.8,774.5,528.4,773.4z"/>
	<path id="path59752" inkscape:connector-curvature="0" class="st34" d="M550.9,772.3c1.2,2.8,5.7,2.8,5.7,6.6
		c-3.9-0.4-5.3-4.7-9-5.7c-0.9-0.8-1.1-1.9-0.9-3c0-0.6,0.1-1.1,0.4-1.7c0.8-4.7,0.8-4.7,3.3-5.2
		C550.8,766.4,549.6,769.4,550.9,772.3L550.9,772.3z"/>
	<path id="path59754" inkscape:connector-curvature="0" class="st35" d="M540.7,770c0-2.4,0-4.5,0-6.7c5.3-1.3,6.3-0.2,5.2,6
		c-0.2,0.2-0.4,0.6-0.7,0.8C543.7,770,542.2,770,540.7,770z"/>
	<path id="path59756" inkscape:connector-curvature="0" class="st36" d="M547.6,770c0,1.1,0,2.1,0,3.4c-0.4,1.7,0.8,3.7-1.5,5.4
		c-1.2-3-0.6-6-0.7-8.8l0,0C546,769.2,546.7,769.4,547.6,770L547.6,770z"/>
	<path id="path59758" inkscape:connector-curvature="0" class="st37" d="M538.6,779c-2.1-0.2-3-1.9-1.8-3.4c1.5-1.8,2.4,1.8,3.9,1.1
		C540.7,778.2,539.9,779,538.6,779z"/>
	<path id="path59760" inkscape:connector-curvature="0" class="st38" d="M555.4,772.3c-3.4-0.4-3.4-2.8-3.4-5.4c0-14,0.1-28,0.1-42
		c1.1-0.7,2-0.6,2.8,0.4c1.7,3.1,1.1,6.5,1.1,9.9c0,9.5,0.1,19.1-0.1,28.5c-0.2,2.7,0.6,5.4,0.9,8
		C556.4,772.6,556,772.7,555.4,772.3L555.4,772.3z"/>
	<path id="path59762" inkscape:connector-curvature="0" class="st39" d="M547.6,695.8c1.9,0,3.1,1.7,3.8,2.8
		c3,4.9,5.6,10.1,8.4,15.3c0,2.1,0,4.5,0,6.6c-1.3,0.4-2-0.6-2.4-1.7c-0.6-2.1-1.1-0.6-1.7,0c-4-0.6-2.8-4.7-4.6-7
		c-0.6-1.8-1.2-3.6-2.1-5.1c-0.6-1.2-0.7-2.6-0.8-3.9C548.4,700.4,545.8,698.4,547.6,695.8L547.6,695.8z"/>
	<path id="path59764" inkscape:connector-curvature="0" class="st40" d="M550.9,772.3c-2.4-2.7-0.6-6-1.2-9
		c-0.8-0.8-1.2-1.8-1.3-2.8c-0.4-10.7-0.1-21.3-0.1-32c0-1.7,0-3.4,0.8-4.9c0.2-0.2,0.6-0.6,0.8-0.7c1.8,1.8,0.9,3.8,1.1,5.8
		C550.9,743.2,550.9,757.8,550.9,772.3L550.9,772.3z"/>
	<path id="path59766" inkscape:connector-curvature="0" class="st41" d="M556.4,772.3c-2.6-1.7-2.4-4.3-2.4-6.7
		c1.9-1.2,0.4-5.2,3.9-5.1c0.9,0.1,1.2,0.9,1.7,1.7c0,1.5,0,3.1,0.1,4.6c-1.2,2-0.1,4.4-0.7,6.5
		C557.7,774.3,557.1,773.3,556.4,772.3L556.4,772.3z"/>
	<path id="path59768" inkscape:connector-curvature="0" class="st42" d="M552.1,711.5c2.8,1.3,0.7,6,4.5,6.7c1.7,2,1.8,4.4,0.4,6.5
		c-0.8,0.8-1.8,0.9-2.7,0.1c-0.7,0-1.5,0-2.1,0c0-1.1-0.1-2.1-0.1-3.4C551.8,718.4,549.8,714.9,552.1,711.5z"/>
	<path id="path59770" inkscape:connector-curvature="0" class="st43" d="M559.7,762c-0.4-0.4-0.7-0.7-1.1-1.1
		c-1.1-1.1-1.7-2.6-1.7-4c0-10.1-0.7-20,0.4-30.1c0.4-1.1,0.9-2,2.4-1.9C559.7,737.3,559.7,749.7,559.7,762L559.7,762z"/>
	<path id="path59772" inkscape:connector-curvature="0" class="st44" d="M549.7,716c0,2.4,0,4.5,0.1,6.7h-0.1
		c-0.6,0.4-0.9,0.2-1.3,0c-0.8-1.1-1.2-2.4-1.7-3.7c-0.4-4.4-3.3-7.9-4.5-12c-0.1-0.8,0-1.7,0.6-2.4c3.4-0.8,3.9,2.6,5.7,4
		C549.6,711.1,551.5,713.3,549.7,716L549.7,716z"/>
	<path id="path59774" inkscape:connector-curvature="0" class="st45" d="M549.7,716c-0.7-2.4-1.5-4.5-2.1-6.7
		c-0.7-0.8-0.7-1.7-0.1-2.5c0.8-0.6,1.7-0.6,2.5,0.1c3,0.4,2,2.7,2.4,4.5c0,3.4,0,6.7,0,10.2C549.8,720.3,551.8,717.4,549.7,716z"/>
	<path id="path59776" inkscape:connector-curvature="0" class="st46" d="M559.9,725c-0.4,0.4-0.7,0.7-1.1,1.1
		c-1.3,0.7-2.4,0.8-2.4-1.1c0-2.4,0-4.5,0-6.7c0.2-0.6-0.1-2.4,1.2-0.7c0.8,0.9,1.3,1.9,2,3C559.7,722,559.7,723.5,559.9,725
		L559.9,725z"/>
	<path id="path59778" inkscape:connector-curvature="0" class="st47" d="M558.7,773.4c0.4-2.1-0.9-4.7,1.2-6.6
		c0,3.3-0.1,6.6-0.2,9.9c0,0.1-0.2,0.2-0.4,0.2c-0.1,0-0.4-0.1-0.6-0.1C558,775.6,557.7,774.5,558.7,773.4z"/>
	<path id="path59780" inkscape:connector-curvature="0" class="st48" d="M558.7,773.4c0,1.1,0,2.1,0,3.4c-2-0.8-2.5-2.8-3.4-4.5
		c0.4,0,0.8,0,1.1,0C557.1,772.6,558,772.9,558.7,773.4L558.7,773.4z"/>
	<path id="path59782" inkscape:connector-curvature="0" class="st49" d="M502.7,709.5c-3.6-1.1-5.7,1.8-8.3,3.1
		c-3.4,1.7-6.5,1.9-9.7,0.1c3.6-0.8,1.7-3.7,2.1-5.6c1.7-1.8,5.4,0.4,5.8-3.4c0.8-2,2.7-2.4,4.5-2.5c2.7,0.4,3.6-1.3,4.4-3.6
		c0.4-0.2,0.9-0.4,1.5-0.6c2.8,0.6,5.8-0.1,8.8,0.7c0.6,0.7,0.7,1.3,0.6,2.1c-2,3.4-5.6,5.1-8.2,7.7
		C503.4,708.3,503.1,708.8,502.7,709.5L502.7,709.5z"/>
	<path id="path59784" inkscape:connector-curvature="0" class="st50" d="M498.1,702.5c-1.8,0.2-4-0.7-4.5,2.4
		c-0.8,0.7-1.5,0.6-2.1,0c-0.7-3.4,2.5-5.8,2.1-9.3c-0.1-2.4,2.7-1.8,4.6-1.9c2.7,1.5,1.2,3.9,1.3,6
		C499.3,700.6,498.8,701.7,498.1,702.5L498.1,702.5z"/>
	<path id="path59786" inkscape:connector-curvature="0" class="st51" d="M498.1,699.2c-0.4-1.9,1.2-3.8,0-5.6
		c1.1-2.5,3.8-2.7,5.8-3.8l-0.1-0.4c-0.4-0.1-0.7-0.1-1.1-0.2c0-0.9,0.2-1.8,1.2-2.1c2.7,0.6,5.4,1.3,3,4.9c-1.2,1.8,0.6,2.7,0.6,4
		c-1.1,1.8-3.6,0.7-4.7,2.4c-0.4,0-0.7,0-1.1,0C500.5,699,499.5,699.9,498.1,699.2L498.1,699.2z"/>
	<path id="path59788" inkscape:connector-curvature="0" class="st52" d="M491.2,704.8c0.7,0,1.5,0,2.1,0c-1.2,4-4.3,2.5-6.7,2.4
		c-0.9-0.1-2.6,0.4-2.7-1.1c-0.1-1.2,1.2-1.1,2.1-1.1C488,704.8,489.6,704.8,491.2,704.8z"/>
	<path id="path59790" inkscape:connector-curvature="0" class="st49" d="M482.4,700.3c0-0.7,0-1.3-0.1-2c0.8-0.9,1.3-2,2.4-2.7
		c1.9-0.1,1.2,1.9,2,2.6C486.5,701,484.1,700.1,482.4,700.3L482.4,700.3z"/>
	<path id="path59792" inkscape:connector-curvature="0" class="st53" d="M486.7,698c-0.7-0.7-1.5-1.5-2.1-2.1
		c-0.7-0.8-0.7-1.7,0-2.5c0-0.2,0.1-0.6,0.1-0.8c0.7,0,1.3-0.1,2-0.1C486.7,694.2,486.7,696.1,486.7,698L486.7,698z"/>
	<path id="path59794" inkscape:connector-curvature="0" class="st54" d="M518.3,788.1c-1.2,2.8-3.1,6-6.4,5.1
		c-4.7-1.5-11.7,2.4-14-5.4c-0.7-2.4-3.4-2.5-3.7-0.9c-1.1,4.7-3.4,1.2-5.2,1.3c0.4-2.4-0.7-4.3-2.4-5.3c-3.9-2.6-3.9-6.5-4.5-10.4
		c2.5-1.3,4.6,1.3,7,0.6c1.9,0.4,3.3,1.8,2.5,3.6c-2.8,6.2,1.3,4.3,4.3,3.9c2.4,0.8,4.5,2,6.7,2.4c3.4,1.5,7.1,1.5,10.7,2.1
		C515.1,785.5,517,786.2,518.3,788.1L518.3,788.1z"/>
	<path id="path59796" inkscape:connector-curvature="0" class="st55" d="M473.5,752.3c0.7-0.4,1.3-0.9,2-1.3c1.5-0.9,3.1-0.7,4,0.4
		c2.5,2.8,5.6,3,8.9,3.3c0.2,4.4,3,8.4,1.2,12.9c-4.7,2-7-2-10.3-4.7c0,2,2.4,3.4,0.8,5.1c-2-1.2-5.2,3.1-6.7-1.1
		C473.2,761.8,473.5,757.1,473.5,752.3L473.5,752.3z"/>
	<path id="path59798" inkscape:connector-curvature="0" class="st56" d="M480,767.8c-0.1-2.7-3.4-3.3-3.8-6.3
		c6.5-2.4,7.6,6.4,12.8,6.3c1.7,1.9,1.7,3.8,0,5.6c-2.8,3.1-4.5-1.1-6.7-1.1C481.4,770.8,480.8,769.2,480,767.8z"/>
	<path id="path59800" inkscape:connector-curvature="0" class="st57" d="M547.6,695.8c0.7,2.4,1.5,4.5,2.1,6.7
		c-0.7,0.7-1.3,0.7-2.1,0.4c-2.5-1.9-3.3-5.1-6-6.7c-2.5-1.8,0.9-1.7,1.5-2.6c1.5,0,3,0,4.5,0C547.6,694.2,547.6,694.9,547.6,695.8z
		"/>
	<path id="path59802" inkscape:connector-curvature="0" class="st58" d="M507,686.8c3.7-2,7.5-0.7,11.2-0.9c5.7,0.8,6.4,6.2,8.9,9.8
		c-1.2,1.3-2.7,1.2-4.3,0.7c-2.6-1.3-5.3-2.5-6.6-5.4C514.5,687,509.6,689.4,507,686.8L507,686.8z"/>
	<path id="path59804" inkscape:connector-curvature="0" class="st59" d="M536.1,686.9c0,0.2,0.1,0.7,0.1,0.9c-1.2,2,0.7,2.8,1.5,4
		c0.9,1.5,2.5,2.8,0.2,4.5c-1.5,0.6-2.8,0.6-3.9-0.7c-0.1-0.1-0.1-0.4-0.4-0.4c-3.3-1.3-5.4-4.4-4.6-7.2
		C529.6,686.1,533.5,686.6,536.1,686.9z"/>
	<path id="path59806" inkscape:connector-curvature="0" class="st60" d="M534.1,695.8c1.5,0,3,0,4.5,0c4,2.4,7.5,5.3,9.5,9.8
		c0.1,0.6,0,1.1-0.4,1.5c0,0.8,0,1.5,0,2.4c-1.5-1.5-3-3-4.5-4.5c-1.1-0.4-2-1.1-3-1.5c-1.1-0.6-1.9-1.3-2.7-2.4
		c-1.2-2.5-5.6-1.5-5.6-5.2C532.5,695.8,533.2,695.8,534.1,695.8z"/>
	<path id="path59808" inkscape:connector-curvature="0" class="st61" d="M531.7,695.8c1.5,2.6,5.6,1.3,6.6,4.5
		c-4,2.4-7.6-1.8-11.6-1.2c-1.7-0.6-3.4-0.8-4.3-2.6c0-0.2,0.1-0.6,0.1-0.8c1.5,0,3,0,4.5,0C528.7,695.8,530.3,695.8,531.7,695.8z"
		/>
	<path id="path59810" inkscape:connector-curvature="0" class="st61" d="M507,686.8c4.9-0.1,10.2-0.9,11.8,5.8
		c0.4,1.5,3.8,0.4,3.9,3.1l0,0c-5.3,2.7-10.4,1.8-15.7,0c-0.8-1.5-2.8-0.7-4.3-2c2-1.9,6.6-3.9,0.8-6.7
		C504.8,686.8,505.9,686.8,507,686.8z"/>
	<path id="path59812" inkscape:connector-curvature="0" class="st55" d="M487,738.7c2.1-0.1,4.4-0.1,6.5-0.2
		c0.7,0.6,0.9,1.3,1.1,2.1c0,0.8-0.1,1.7-0.6,2.4c-3.1,2,0.9,3.7,0.2,5.6c0,0.6-0.2,1.1-0.6,1.7c-1.2,1.5-2.7,2.8-4.9,2.8
		c-3.6-0.8-5.7-3.8-8.9-5.6c-0.1-2.4,0-4,3-4.7C484.8,742.4,486.3,740.6,487,738.7L487,738.7z"/>
	<path id="path59814" inkscape:connector-curvature="0" class="st62" d="M480,747.6c4.4-1.1,5.6,3.8,9,4.5c0.7,1.3,0.8,2.4-1.1,2.4
		c-2.4,3-4.5,2.7-6.7,0c-1.5-1.8-3.1-3.3-5.6-3.4C476.9,749.6,478,747.7,480,747.6z"/>
	<path id="path59816" inkscape:connector-curvature="0" class="st63" d="M536.2,756.5c-0.7,0-1.5,0-2.4,0c-0.7,0.7-1.3,0.7-2.1,0.4
		c-2.5-1.7-5.2-2.7-7.3-4.7c-1.8-2.5-1.8-4.7,0.2-7.1c1.2-1.3-0.2-0.9-0.7-0.9c-0.1,0-1.2-1.2-0.9,0.2c0.7,4.9-2.7,4.7-6,5.1
		c-2.1,0.1-4.5,0.1-6.6,0.2c-0.8,0-1.7-0.2-2.4-0.8c-0.9-1.3-0.2-2.6,0.4-3.9c1.5-2,3.4-3.4,5.3-5.1c0.6-0.2,0.9-0.4,1.5-0.6
		c2.6-0.6,5.2,0,7.6,0.1c0.6-0.1,0.4-0.1-0.2-0.1c-0.9-0.1-2-0.2-2.1-1.3c-0.1-2.1,1.9-0.8,2.7-1.7c0.1-0.1,0.2-0.2,0.4-0.2
		c0.9-0.4,1.1-1.3,1.2-2.1c3.3,0.1,4.6-1.5,4.6-4.5c2.5-0.6,1.3-4.5,4.4-4.5c1.2,0.6,1.7,1.3,1.5,2.6c-2.6,4.7-3.4,9.7-1.1,14.8
		c0.6,1.2,1.1,2.6,0.4,3.7c-1.5,2.5-1.1,4.4,1.1,6C537.5,753.4,538.8,754.9,536.2,756.5L536.2,756.5z"/>
	<path id="path59818" inkscape:connector-curvature="0" class="st64" d="M523.9,736.2c-0.7,0.6-1.5,1.1-2.5,1.8
		c2.4,1.2,5.2-0.4,8.3,1.9c-5.6,1.5-10.3,0.6-14.9,0.8c-0.8-1.8-0.2-3.3,1.2-4.5C518.7,736.2,521.3,736.2,523.9,736.2L523.9,736.2z"
		/>
	<path id="path59820" inkscape:connector-curvature="0" class="st65" d="M500.2,736.4c0.7,0,1.5-0.1,2.1-0.1c3-0.6,6.3,0.4,9.1-0.8
		c1.3,2,0.6,3.4-1.5,4c-1.3,0.6-2.8,0.6-3.9,1.7c-0.4,0.2-0.8,0.6-1.3,0.7c-1.3,0.6-2.8,1.1-4.4,0.6c-0.4-0.2-0.7-0.7-0.7-1.2
		C500.5,739.5,499.2,737.9,500.2,736.4L500.2,736.4z"/>
	<path id="path59822" inkscape:connector-curvature="0" class="st66" d="M505.9,740.7c-0.8-1.8-0.1-2.5,1.7-2.4
		c2.4,0.1,4.3-0.2,3.9-3.1c1.7-0.1,3.3-0.6,4.5,0.9c0.1,1.7-0.4,3.1-1.2,4.5c-0.4,0-0.8,0-1.1,0
		C511.1,742.5,508.5,742.9,505.9,740.7L505.9,740.7z"/>
	<path id="path59824" inkscape:connector-curvature="0" class="st67" d="M484.6,693.3c0,0.8,0,1.7,0,2.5c-0.1,1.3-0.9,2.1-2.4,2.5
		C482.4,696.2,483.1,694.7,484.6,693.3L484.6,693.3z"/>
	<path id="path59826" inkscape:connector-curvature="0" class="st68" d="M535.1,727.2c-0.4-0.7-0.8-1.5-1.1-2.4c0-1.5,0-3,0-4.5
		c-1.5-3.9-1.5-3.9,2-11.1c-2-0.7-2.5,0.8-3,2c-0.7,1.3-0.9,3.4-3.3,2.1c-0.1-1.5-0.1-3-0.2-4.4c-0.9-1.2-1.3-2.7-1.3-4.3
		c0.9-6.2,1.2-6.2,6.5-3.9c1.9,0.8,3.7,2,5.6,2.6c1.5,0.6,1.9,2.1,2.8,3.3c2.1,3.8,5.1,7.5,4.5,12.4c0.8,1.7,0.6,3.3,0.7,5.1
		c-1.9,2.5-3,0.8-3.9-0.9c-0.6-1.1-0.4-2.8-2.1-2.5c-1.3,0.2-1.8,1.8-2.1,2.8c-0.6,1.3-0.2,3-1.7,3.9
		C537,728.2,536,728.2,535.1,727.2L535.1,727.2z"/>
	<path id="path59828" inkscape:connector-curvature="0" class="st69" d="M529.7,713.6c2.5-0.4,2-2.4,2-3.9c0-1.8,0.8-2.8,2.7-2.7
		c1.2,0,2.7-0.4,3.6,1.1c0.8,1.7,0.1,3-1.2,3.9c-3,2.1-3,5.3-2.8,8.5c-0.8-0.1-1.3,2.6-2,0.4c-0.6-1.8-0.8-3.6-2.1-4.9
		C529.7,715.2,529.7,714.5,529.7,713.6L529.7,713.6z"/>
	<path id="path59830" inkscape:connector-curvature="0" class="st70" d="M500.2,736.4c-0.6,1.5,3.6,3,0,4.5c-2.1,1.8-4.5,1.8-6.6,0
		c0-0.8,0-1.5,0-2.4C494.8,734.6,498.1,737.1,500.2,736.4z"/>
	<path id="path59832" inkscape:connector-curvature="0" class="st71" d="M540.7,704.8c-3.1,0.8-5.4-1.3-7.6-2.7
		c-4.4-2.6-3.6,0.2-3.7,2.7c-1.1,1.7-3.3,0.7-4.5,2.1v0.2c-1.9,0.7-3.7,0.8-5.6-0.1c-0.4-0.1-0.8-0.1-1.2-0.2
		c-2.1-1.8-4.9-2.6-7.2-4.4c-0.2-0.8-0.2-1.5,0.4-2.1c0-0.7,0-1.5,0-2.4c4.9-2.4,9.8-0.8,14.7,0c4.5-0.9,8.2,1.9,12.2,2.4
		c0.8,0.7,1.5,1.5,2.4,2.1C541.4,703.2,541.3,704,540.7,704.8z"/>
	<path id="path59834" inkscape:connector-curvature="0" class="st72" d="M511.5,700.3c0,0.7,0,1.5,0,2.4c1.5,1.9-0.4,2.8-1.2,4.3
		c-1.1,0.1-2,0.2-3,0.4c-1.7,0.6-3.3,1.1-4.7-0.1C505.5,704.9,507.9,701.7,511.5,700.3z"/>
	<path id="path59836" inkscape:connector-curvature="0" class="st73" d="M510.4,706.6c-1.5-1.9,1.8-2.5,1.2-4.3
		c3.4-0.2,5.6,1.1,6.7,4.3C515.6,706.8,513,706.8,510.4,706.6z"/>
	<path id="path59838" inkscape:connector-curvature="0" class="st16" d="M502.5,707c1.7,0,3.1,0,4.7,0.1c-1.3,1.2-2.8,2-4.6,2.4
		C502.5,708.5,502.5,707.8,502.5,707z"/>
	<path id="path59840" inkscape:connector-curvature="0" class="st74" d="M519.4,707c1.9,0,3.7,0,5.6,0.1c-0.7,0.4-1.5,0.8-2.1,1.1
		C521.5,708.1,520.2,708.3,519.4,707L519.4,707z"/>
	<path id="path59842" inkscape:connector-curvature="0" class="st75" d="M525,706.9c0.4-3,2.7-1.9,4.5-2.1c0,1.5,0,3,0,4.6
		C527.9,708.5,526.5,707.7,525,706.9L525,706.9z"/>
	<path id="path59844" inkscape:connector-curvature="0" class="st76" d="M547.6,705.9c-3-3.4-6-6.7-9-10.1c-0.1-2.4-2.1-3.1-3.4-4.6
		c-1.5-1.8-1.1-2.8,1.2-3.3c0.8,1.2,2,1.1,3.3,1.1c0,0.4,0,0.8,0.1,1.2c0.2,1.3,1.7,2,2.4,3.3c0.4,0,0.8,0,1.2,0
		c0.2,0.8-2.6,1.1-0.4,2.1c2.7,1.5,4.7,3.4,5.1,6.7C548.4,703.6,548.5,704.8,547.6,705.9z"/>
	<path id="path59846" inkscape:connector-curvature="0" class="st28" d="M541.8,693.4c-0.8-1.1-3.9-0.6-2.4-3.3
		C541.2,690.7,541.8,691.9,541.8,693.4z"/>
	<path id="path59848" inkscape:connector-curvature="0" class="st11" d="M497.9,792.7c1.7-0.2,2.7,0.6,3.4,2
		c-0.4,0.1-0.7,0.1-1.1,0.1C499,794.7,498.1,794,497.9,792.7L497.9,792.7z"/>
	<path id="path60718" inkscape:connector-curvature="0" class="st77" d="M536.2,756.5c0.1-0.7,0.6-1.9,0.4-2
		c-6.6-2.6-2.5-7.5-2.7-11.6c0.7-0.7,1.5-0.7,2.5-0.2c2.6,6.2,9,9.1,12.1,14.9c0.2,4.3-0.4,8.3-0.9,12.4l0,0c-0.7,0-1.5,0-2.1,0
		c-0.2-3,1.5-7.5-4.5-6.7C540.6,760.1,542.1,755.9,536.2,756.5z"/>
	<path id="path60720" inkscape:connector-curvature="0" class="st78" d="M531.3,769.8c1.2-3.7,1.2-7.3,0.4-11
		c2.1-0.7,1.3,1.8,2.4,2.1C533.2,763.8,536.3,768.1,531.3,769.8z"/>
	<path id="path60722" inkscape:connector-curvature="0" class="st79" d="M534.1,761c-0.8-0.7-1.5-1.5-2.4-2.1l0,0
		c-0.6-0.8-0.7-1.7,0.1-2.5c0.7,0,1.5,0.1,2.1,0.1C534.1,758,534.1,759.5,534.1,761L534.1,761z"/>
	<path id="path60724" inkscape:connector-curvature="0" class="st80" d="M518.3,788.1c-1.8-0.2-3.4-0.8-4.5-2.4c3-2.5,6-1.3,9,0
		c-0.4,1.1-0.7,2.4-1.1,3.4C520.5,788.8,519.4,788.3,518.3,788.1z"/>
	<path id="path60726" inkscape:connector-curvature="0" class="st81" d="M505.9,773.3c2,1.2,4,2.5,6.2,3.6c0.6,1.3,1.9,0.8,2.8,1.1
		c-0.4,2.5-2.1,3.9-3.4,5.8c-0.8,0.4-1.7,0.4-2.5,0.1c-2.7-1.9-6.2-0.8-8.9-2.4c-1.9-1.9-3.7-3.8-2.6-6.7
		C500,772.6,503.8,776.6,505.9,773.3L505.9,773.3z"/>
	<path id="path60728" inkscape:connector-curvature="0" class="st82" d="M509.2,783.4c0.8,0,1.5,0,2.4,0c2.1-1.5,2.8-5.2,6.6-4.5
		c-1.2,4.3,3.9,3.9,4.6,6.7c-3,0-6,0-9,0c-3.9,0.1-7.9,0.4-11.4-2.1c0.2-0.2,0.4-0.4,0.7-0.7C505.2,782.1,507.3,781.9,509.2,783.4
		L509.2,783.4z"/>
	<path id="path60730" inkscape:connector-curvature="0" class="st83" d="M518,779c-2.8,0.6-3.1,4.9-6.6,4.5c-0.7-3,1.1-4.4,3.4-5.4
		C516.1,777.9,517.4,777.5,518,779z"/>
	<path id="path60732" inkscape:connector-curvature="0" class="st84" d="M547.6,770c0-4.5,0-9,0-13.5c-1.7-2-1.8-4.5-1.7-7
		c0-6.5,0-13,0-19.8c0-1.8,0.2-3.6,1.5-4.9c0-1.9,0-3.8,0-5.6c1.3,0.8,1.1,2.1,1.1,3.4c1.2,10.3,0.1,20.8,0.6,31.1
		c0.1,2.5-0.6,4.7,0.6,7.2c0,0.7,0,1.5,0,2.1C547.4,765,549.8,768.2,547.6,770z"/>
	<path id="path60734" inkscape:connector-curvature="0" class="st85" d="M556.4,725c0.6,0.9,1.3,1.1,2.4,1.1c0,11.6,0,23.2,0,34.8
		c-3.3-0.2-1.2,4.7-4.5,4.5c0-13.5,0-27.1,0-40.5C555,725,555.7,725,556.4,725L556.4,725z"/>
	<path id="path60736" inkscape:connector-curvature="0" class="st86" d="M547.6,705.9c0-1.1,0-2.4,0-3.4c0.7,0,1.5,0,2.1,0
		c0,1.5,0,3,0,4.5c-0.7,0-1.5,0-2.1,0C547.6,706.6,547.6,706.2,547.6,705.9z"/>
	<path id="path60738" inkscape:connector-curvature="0" class="st34" d="M549.7,761c-1.7-1.5-1.1-3.4-1.1-5.3c0-11,0-22,0-33
		c0.4,0,0.7,0,1.1,0C549.7,735.4,549.7,748.2,549.7,761z"/>
	<path id="path60740" inkscape:connector-curvature="0" class="st87" d="M540.7,704.8c0-0.7,0-1.5,0-2.1c1.5,0,2.1,0.8,2.4,2.1
		c0,0.7,0,1.5,0,2.4C542.2,706.2,541.4,705.6,540.7,704.8z"/>
	<path id="path60742" inkscape:connector-curvature="0" class="st72" d="M526.1,697.9c-4.9,0-9.8,0-14.7,0c-3,1.2-6,1.2-9,0
		c0.4-3,2.7-2,4.5-2.4c5.3,0,10.4,0,15.7,0C523.9,696.6,525.1,697.3,526.1,697.9L526.1,697.9z"/>
	<path id="path60744" inkscape:connector-curvature="0" class="st72" d="M498.1,699.2c1.1-0.4,2.1-0.7,3.4-1.1c2.4,4,0,4.7-3.4,4.5
		C498.1,701.3,498.1,700.3,498.1,699.2z"/>
	<path id="path60746" inkscape:connector-curvature="0" class="st88" d="M487.8,754.2c0.9-0.6,1.1-1.3,1.1-2.4
		c1.5-0.7,3-1.5,4.5-2.4c0.9,0.8,1.2,2,1.1,3.3c0,0.6-0.2,1.1-0.4,1.7c-1.9,2.7-1.3,5.8-1.3,9c-0.2,4.9-0.1,9.8,2.8,14
		c0.7,1.1,1.2,2.5,0.1,3.7c-1.1,0.1-2.1,0-3.1,0.8c-1.7,1.5-2-0.8-3.1-1.2c-1.7-0.7-0.6-1.7,0.1-2.5c1.5-1.8,2-3.7-0.7-4.9
		c0-1.9,0-3.8,0-5.6C489.6,763.2,486.5,759,487.8,754.2z"/>
	<path id="path60748" inkscape:connector-curvature="0" class="st89" d="M495.7,781.2c-3.1-5.6-5.7-11.2-4.5-18
		c0.6-0.4,0.9-0.4,1.5,0c1.3,1.9,0.8,4.4,1.7,6.4c0.7,4.3,2.8,7.7,5.2,11.1c0.2,1.8,3.4,0.1,3.1,2.6l-0.1,0.1
		C499.7,783.9,497.7,782.7,495.7,781.2L495.7,781.2z"/>
	<path id="path60750" inkscape:connector-curvature="0" class="st90" d="M493.6,753.2c0-1.1,0-2.4,0-3.4c0-0.4,0-0.7,0-1.1
		c0.6-2.1,1.2-4.5,3.3-5.8c0.6-0.1,0.9-0.1,1.5,0.1c1.3,1.9,3.8,1.1,5.4,2c0.2,0.4,0.4,0.9,0.4,1.5c-0.9,2.5-4,2-5.3,4
		C497.4,752,496.1,754.1,493.6,753.2z"/>
	<path id="path60752" inkscape:connector-curvature="0" class="st91" d="M496.8,743.1c-0.2,2.5-1.9,3.9-3.4,5.6
		c-0.7-2.1-2.5-3.3-4.3-4.4c1.3-1.9,2.8-1.1,4.3-1.3C494.7,742.1,495.7,741.9,496.8,743.1z"/>
	<path id="path60754" inkscape:connector-curvature="0" class="st92" d="M496.8,743.1c-1.1,0-2.1,0-3.4,0c0-0.7,0-1.5,0-2.1
		c2.1,0,4.5,0,6.6,0c0,0.4,0,0.7,0,1.1c0,1.9-0.9,1.9-2.1,1.2C497.6,743.1,497.3,743.1,496.8,743.1z"/>
	<path id="path60756" inkscape:connector-curvature="0" class="st93" d="M547.6,729.5c0,6.7,0,13.5,0,20.2c-4.6,0.4-4.3-3.4-4.9-6.2
		c-0.1-0.7,0.4-1.3,0.6-2.1c0.2-1.7,1.8-4-0.7-4.7c-1.9-0.6-2,2-2.6,3.6c-0.7,1.5-0.7,4-3.6,2.6c-0.7,0-1.5,0-2.4,0
		c-3.7-3.6-3.1-11.1,1.1-15.7c1.1,0,2.1,0,3.4,0C541.5,728.1,544.8,727.5,547.6,729.5z"/>
	<path id="path60758" inkscape:connector-curvature="0" class="st94" d="M510.4,748.7c2.4-0.2,4.7-0.4,7.1-0.7
		c2.6-0.1,5.7,1.3,4.6-4c-0.2-1.5,4.3-0.8,7.2,0c-4.3,1.3-6.3,3.7-4.3,7.7c-0.2,0.7-0.7,0.8-1.2,0.4l0,0c-4-2.8-8.8-1.3-13.1-1.9
		C510.2,749.7,510,749.1,510.4,748.7L510.4,748.7z"/>
	<path id="path60760" inkscape:connector-curvature="0" class="st95" d="M510.4,748.7c0,0.4,0,0.8,0,1.2c-0.2,2.7-3.9,2-4.5,4.5
		l-0.2-0.1c-1.1,0.9-2.5,1.2-3.8,0.8c-2.1-1.1-2.7-3.4-3.8-5.3c0.6-3.4,4-1.8,5.6-3.4c-0.2,4.3,3,1.5,4.5,2.4
		C508.9,748.7,509.6,748.7,510.4,748.7L510.4,748.7z"/>
	<path id="path60762" inkscape:connector-curvature="0" class="st96" d="M508.2,748.7c-1.8,1.1-3.6,2.4-5.4,3.4
		c-1.2-2.5,1.3-3.8,0.9-5.7c0-0.4,0-0.7,0-1.1c1.1-1.3,2.6-1.3,4-1.1c0.6,0.1,1.1,0.6,1.5,0.9C508.9,746.4,508.5,747.6,508.2,748.7
		L508.2,748.7z"/>
	<path id="path60764" inkscape:connector-curvature="0" class="st97" d="M509.3,745.2c-0.4,0-0.8-0.1-1.2-0.1
		c-1.3-1.2-4.7-0.9-3.3-4.4c0.4,0,0.8,0,1.1,0c2.6,0,5.3,0,7.9,0C513.4,743.5,510.9,743.9,509.3,745.2z"/>
	<path id="path60766" inkscape:connector-curvature="0" class="st98" d="M523.8,752.2c0.4-0.1,0.8-0.2,1.2-0.4
		c2.4,1.3,5.4,1.7,6.7,4.6c0,0.8,0,1.7-0.1,2.5C529,756.6,526.5,754.3,523.8,752.2L523.8,752.2z"/>
	<path id="path60768" inkscape:connector-curvature="0" class="st99" d="M504.7,740.7c-0.1,2.5,2.7,2.5,3.3,4.4
		c-1.5,0-2.8,0.1-4.4,0.1c-1.7-1.2-5.8,3.6-5.7-2.4c0.9,0,1.8-0.2,2.1-1.2C501.8,741.6,503.2,741.2,504.7,740.7L504.7,740.7z"/>
	<path id="path60770" inkscape:connector-curvature="0" class="st100" d="M547.6,729.5c-3-0.9-7,2.4-9-2.4c-1.1-1.8-0.2-3.7,0.2-5.3
		c0.7-1.8,2-3.7,4.5-3.4c2.5,0.2,1.9,2.4,1.9,3.9c0.1,1.5,0.7,2.5,2.1,2.6C547.6,726.4,547.6,727.9,547.6,729.5z"/>
	<g id="g60778">
		<path id="path60772" inkscape:connector-curvature="0" class="st101" d="M223.3,710.6c-6.6-17.5-21.1-26.7-39.2-31.1
			c-24.4-5.8-51.4,5.8-63.1,27.8c-5.6,10.4-5.7,21.9-5.3,33.3c0,2.4,0.1,4.5,0,6.7c-1.5,28,18.1,47.8,41.7,53.7
			c26.7,6.6,56.1-5.8,65.8-30.8C230.8,750.9,230.7,730.1,223.3,710.6z M220.6,761c-4.7,23.2-30.2,39.5-55.6,35.7
			c-20.8-3.1-35.6-14-42-34.7c-2.4-7.2-1.2-14.8-1.2-22.2c-0.9-13.1,0.4-25.7,8.9-36.8c11.1-14.7,33.8-22.7,53-17.8
			c20.2,5.2,34.4,17,37.5,38.3C223.1,735.9,223.1,748.7,220.6,761L220.6,761z"/>
		<path id="path60774" inkscape:connector-curvature="0" class="st5" d="M183.7,685.1c-19.2-4.9-41.9,3.1-53,17.8
			c-8.4,11-9.8,23.5-8.9,36.8c0.1,7.5-0.9,15.1,1.2,22.2c6.4,20.7,21.2,31.6,42,34.7c25.3,3.8,50.9-12.7,55.6-35.7
			c2.5-12.4,2.5-25.2,0.6-37.5C217.9,702.2,203.9,690.3,183.7,685.1z M189.7,757.3c-0.1,10.9-7.3,18.2-17.6,18.3
			c-11.1,0-18.5-7.3-18.5-18.6c0-5.2,0-10.4,0-15.7l0,0c0-5.4,0-10.9,0-16.3c0.1-11.2,7-18.3,18.1-18.5c10.8-0.1,18.2,7.2,18.2,18.3
			C189.8,735.8,189.8,746.5,189.7,757.3L189.7,757.3z"/>
		<path id="path60776" inkscape:connector-curvature="0" class="st102" d="M171.5,706.5c-11,0.1-18,7.2-18.1,18.5
			c0,5.4,0,10.9,0,16.3l0,0c0,5.2,0,10.4,0,15.7c0,11.2,7.3,18.6,18.5,18.6c10.4,0,17.6-7.5,17.6-18.3c0.1-10.9,0.1-21.8,0-32.5
			C189.7,713.6,182.3,706.3,171.5,706.5L171.5,706.5z M183.2,758.7c-0.1,6.3-4.9,10.7-11.2,10.7s-11.8-4.4-12-10.2
			c-0.2-12-0.2-24,0-36c0.1-6.3,5.6-10.7,12.4-10.3c6.4,0.2,10.9,4.7,10.9,11.1c0,5.6,0,11.2,0,16.8
			C183.2,746.8,183.3,752.7,183.2,758.7L183.2,758.7z"/>
	</g>
	<g id="g60794">
		<path id="path60780" inkscape:connector-curvature="0" class="st103" d="M449.9,779.2L449.9,779.2
			C449.9,779.2,449.8,779.2,449.9,779.2L449.9,779.2z"/>
		<path id="path60782" inkscape:connector-curvature="0" class="st103" d="M457.6,761.1L457.6,761.1
			C457.6,761,457.6,761.1,457.6,761.1L457.6,761.1L457.6,761.1z"/>
		<path id="path60784" inkscape:connector-curvature="0" class="st103" d="M454.4,771.1L454.4,771.1
			C454.4,771.4,454.4,771.4,454.4,771.1L454.4,771.1z"/>
		<path id="path60786" inkscape:connector-curvature="0" class="st103" d="M457.6,720.4L457.6,720.4c-1.7-5.8-3.8-11.6-6.7-17
			c-0.4-2.4-2.1-3.8-3.7-5.6c-16.1-18.6-41.1-23.8-63-16.7c-19.3,6.3-32.5,19.3-36,39.9c-2.1,12.7-1.5,25.7-0.1,38.6
			c0.4,4.3,1.8,8.4,3.8,12.2c10.3,20.4,27.6,30.1,49.6,31c17.5,0.7,33-5.3,44.6-19.2c0.9-1.7,2-3.3,3.6-4.5c1.1-2.8,2.8-5.4,4.5-7.9
			c1.8-3.1,1.7-7,3.3-10.2C459.9,747.6,458.8,734,457.6,720.4L457.6,720.4z M453.6,757.7c-0.4,3.4-1.1,7-3,9.9
			c-0.4,1.7-0.8,3.4-2.1,4.6l0,0c-1.3,2.4-2.6,4.9-4.6,6.7c-11.4,12.2-25.3,18.6-42.2,18.2c-25.8-0.7-49.9-20.8-48.4-49.1
			c0.4-8.2-0.6-16.6,0.6-24.6c3.1-23.2,24.4-39.6,49.7-39.5c19.3,0.1,34,8.5,44.7,24.4c3.6,6,5.6,12.2,5.7,19.3
			C454.1,737.7,454.5,747.7,453.6,757.7L453.6,757.7z"/>
		<path id="path60788" inkscape:connector-curvature="0" class="st5" d="M450.4,767.7C450.4,767.5,450.6,767.5,450.4,767.7
			C450.6,767.5,450.6,767.5,450.4,767.7L450.4,767.7z"/>
		<path id="path60790" inkscape:connector-curvature="0" class="st5" d="M448.3,708.3c-10.9-15.6-25.4-24.1-44.7-24.4
			c-25.4-0.2-46.6,16.3-49.7,39.5c-1.1,8.2-0.1,16.4-0.6,24.6c-1.5,28.2,22.5,48.4,48.4,49.1c17,0.4,30.9-6,42.2-18.2
			c2-1.9,3.3-4.5,4.6-6.7l0,0c1.3-1.2,1.8-3,2.1-4.6l0,0v-0.1l0,0c1.9-3,2.6-6.4,3-9.9c1.1-10.1,0.6-20.1,0.4-30.1
			C453.8,720.5,451.8,714.2,448.3,708.3z M421.2,759.8c-0.4,9.9-8.4,16.2-18.8,15.9c-9.8-0.4-17-7.3-17.2-17c-0.1-5.8,0-11.6,0-17.4
			l0,0c0-6-0.1-12,0-18c0.4-9.8,7.5-16.4,17.4-16.7c9.9-0.2,18.1,6.2,18.5,15.6C421.8,734.6,421.8,747.2,421.2,759.8z"/>
		<path id="path60792" inkscape:connector-curvature="0" class="st104" d="M402.7,706.5c-10.1,0.2-17.2,7-17.4,16.7
			c-0.1,6,0,12,0,18l0,0c0,5.8-0.1,11.6,0,17.4c0.2,9.7,7.3,16.7,17.2,17c10.3,0.4,18.3-6,18.8-15.9c0.6-12.5,0.4-25,0-37.5
			C420.8,712.7,412.7,706.2,402.7,706.5z M414.9,758.7c-0.1,6.4-5.1,10.8-11.4,10.8c-6.5,0-12-4.6-12-10.9
			c-0.1-11.6-0.1-23.2,0-34.8c0.1-6.5,5.1-10.9,11.7-10.9c6.5,0,11.2,4,11.6,10.4c0.2,6.2,0,12.4,0,18.5
			C414.9,747.6,415,753.2,414.9,758.7z"/>
	</g>
	<path id="path61624" inkscape:connector-curvature="0" class="st105" d="M505.9,773.3c-1.5,7.7-5.2,1.3-7.9,1.2
		c-0.2-0.1-0.4-0.2-0.7-0.4c-3-4,0.7-6.3,2.6-8.9c0.7-0.4,1.5-0.6,2.1-0.2c1.1,0.6,0.7,1.9,1.3,2.6
		C504.2,769.4,505.1,771.4,505.9,773.3L505.9,773.3z"/>
	<path id="path61626" inkscape:connector-curvature="0" class="st98" d="M505.9,754.3c-0.1-3.1,3.3-2.7,4.5-4.5
		c4.5,0.8,9.7-2.5,13.5,2.4C517.6,750.9,511.5,750.4,505.9,754.3z"/>
	<path id="path61628" inkscape:connector-curvature="0" class="st106" d="M501.4,754.2c1.5,0,2.8,0,4.4,0c-0.8,2.1-1.7,4.5-2.4,6.6
		c-0.1,0.1-0.4,0.2-0.7,0.4c-0.1-0.1-0.4-0.2-0.6-0.4c-0.8-1.2-0.1-2.7-0.8-3.9c-0.6-0.9-1.8-1.7-1.1-3
		C500.6,753.7,501,753.7,501.4,754.2L501.4,754.2z"/>
	<path id="path61630" inkscape:connector-curvature="0" class="st107" d="M502.5,761c0.2,0,0.6,0,0.8-0.1c0,2.1,0.1,4.5,0.1,6.6
		c-0.9-0.4-0.9-1.2-1.1-2C501.4,764,501.2,762.5,502.5,761L502.5,761z"/>
	<path id="path61632" inkscape:connector-curvature="0" class="st63" d="M536.2,743.1c2-0.1,2.4-1.5,2.1-3.1c0-3.3,1.9-6.2,4.7-5.4
		c3.9,0.9,2.5,5.2,1.5,7.5c-1.5,3.9,0.1,5.8,2.7,7.9c0,2.4,0,4.5,0,6.7C542.7,752.8,537,750,536.2,743.1z"/>
	<path id="path61634" inkscape:connector-curvature="0" class="st108" d="M499.3,781.4c-2.7-3.4-6.2-6.4-5.8-11.2
		c-0.1-3.4-2.4-7.2,1.5-9.9c0.9-0.2,1.9-0.1,2.7,0.4c2,2.8-0.4,5.3-0.8,7.9c-0.4,2.5-0.4,4.4,1.1,6.2l0,0c-0.7,2.7,2,4.3,2.5,6.6
		C500.1,781.7,499.7,781.7,499.3,781.4z"/>
	<path id="path61636" inkscape:connector-curvature="0" class="st109" d="M499.3,781.4c0.4-0.1,0.7-0.1,1.1-0.2
		c2.8,1.1,6.7-2,8.8,2.4c-2.1,0-4.4,0-6.5,0C501.4,782.7,500.3,782,499.3,781.4z"/>
	<path id="path61638" inkscape:connector-curvature="0" class="st89" d="M501.4,754.2c-0.4,0-0.7,0-1.1,0c-2,1.5-4.3,2.7-7,2.4
		c-0.6-0.8-0.4-1.7,0.1-2.4c0-0.4,0-0.7,0-1.1c1.9-0.6,3.1-2,4.5-3.4C500.3,750.3,500.5,752.6,501.4,754.2L501.4,754.2z"/>
	<path id="path61640" inkscape:connector-curvature="0" class="st90" d="M493.6,754.2c0,0.8,0,1.5,0,2.4c1.1,2.6-0.4,4.6-1.2,6.7
		c-0.4,0-0.7,0-1.1,0C491.8,760.1,489.7,756.5,493.6,754.2L493.6,754.2z"/>
	<path id="path61642" inkscape:connector-curvature="0" class="st110" d="M492.3,763.3c0.1-2.4-0.1-4.6,1.2-6.7c2-1.5,4-2.7,6.7-2.1
		c0.7,0.7,1.5,1.3,2.1,2c-0.4,0.7-1.1,1.1-1.9,1.2c-2.5-0.1-3.7,1.8-5.1,3.3c-4.5,2.1-1.2,6.2-2.1,9.1
		C491.5,768.1,492.8,765.5,492.3,763.3L492.3,763.3z"/>
	<path id="path62470" inkscape:connector-curvature="0" class="st111" d="M497.9,774.5c-4.4-4.5-2.1-9,0-13.5
		c-0.4-0.6-0.2-1.1,0.4-1.3c1.3,0,2.1,0.7,2.7,1.8c0.4,1.5,0.4,2.8-0.7,4C499.7,768.7,495.6,770.7,497.9,774.5z"/>
	<path id="path62472" inkscape:connector-curvature="0" class="st112" d="M500.3,765.5c0-1.5,0-3,0-4.5c0.7-0.6,1.5-0.7,2.1-0.1
		c0,0,0,0.1,0.1,0.1c0,1.5-0.1,3-0.1,4.5C501.8,765.5,501,765.5,500.3,765.5z"/>
	<path id="path62474" inkscape:connector-curvature="0" class="st107" d="M502.5,760.8c-0.7,0-1.5,0-2.1,0.1
		c-0.7-0.4-1.5-0.8-2.4-1.1c-0.7-2,1.5-2.1,2.4-3.4c0.7,0,1.5-0.1,2.1-0.1C503.7,757.9,502.1,759.3,502.5,760.8z"/>
	<path id="path62476" inkscape:connector-curvature="0" class="st113" d="M500.2,756.5c0.1,1.8-1.7,2.1-2.4,3.4c0,0.4,0,0.7,0,1.1
		c-0.7,0-1.5,0-2.4,0C495.4,757.4,496.8,756,500.2,756.5z"/>
</g>
</svg>
