<?xml version="1.0" encoding="utf-8"?>
<!-- Generator: Adobe Illustrator 24.0.0, SVG Export Plug-In . SVG Version: 6.00 Build 0)  -->
<svg version="1.1"
	 id="Layer_1" inkscape:version="0.92.4 (f8dce91, 2019-08-02)" sodipodi:docname="logo-h.svg" xmlns:cc="http://creativecommons.org/ns#" xmlns:dc="http://purl.org/dc/elements/1.1/" xmlns:inkscape="http://www.inkscape.org/namespaces/inkscape" xmlns:rdf="http://www.w3.org/1999/02/22-rdf-syntax-ns#" xmlns:sodipodi="http://sodipodi.sourceforge.net/DTD/sodipodi-0.dtd" xmlns:svg="http://www.w3.org/2000/svg"
	 xmlns="http://www.w3.org/2000/svg" xmlns:xlink="http://www.w3.org/1999/xlink" x="0px" y="0px" viewBox="0 0 144 38"
	 style="enable-background:new 0 0 144 38;" xml:space="preserve">
<style type="text/css">
	.st0{display:none;}
	.st1{fill:#020202;}
	.st2{fill:#080808;}
	.st3{fill:#070808;}
	.st4{fill:#1A1B1A;}
	.st5{fill:#FFFFFF;}
	.st6{fill:#F29226;}
	.st7{fill:#FECC76;}
	.st8{fill:#F39322;}
	.st9{fill:#F29922;}
	.st10{fill:#E4E1C3;}
	.st11{fill:#E0932B;}
	.st12{fill:#F7BF63;}
	.st13{fill:#CC8642;}
	.st14{fill:#E79A36;}
	.st15{fill:#CA8B41;}
	.st16{fill:#DC8E3B;}
	.st17{fill:#DB9536;}
	.st18{fill:#B07940;}
	.st19{fill:#E19729;}
	.st20{fill:#CA794B;}
	.st21{fill:#DC8B3B;}
	.st22{fill:#663A1F;}
	.st23{fill:#CB973E;}
	.st24{fill:#EBE0B7;}
	.st25{fill:#A26D2C;}
	.st26{fill:#CF9433;}
	.st27{fill:#C38548;}
	.st28{fill:#E9CD8B;}
	.st29{fill:#CA8F66;}
	.st30{fill:#C48844;}
	.st31{fill:#F29722;}
	.st32{fill:#F19A24;}
	.st33{fill:#F59B2E;}
	.st34{fill:#F9AA42;}
	.st35{fill:#F68B2E;}
	.st36{fill:#E29C28;}
	.st37{fill:#DB9C2B;}
	.st38{fill:#FADD97;}
	.st39{fill:#F8F0B8;}
	.st40{fill:#F6BF67;}
	.st41{fill:#F6EBA2;}
	.st42{fill:#F8E5AC;}
	.st43{fill:#FBEFB1;}
	.st44{fill:#F2AA47;}
	.st45{fill:#FEDB8C;}
	.st46{fill:#FEF3A6;}
	.st47{fill:#FFE9BB;}
	.st48{fill:#FCD587;}
	.st49{fill:#F39225;}
	.st50{fill:#ED9C23;}
	.st51{fill:#EC9636;}
	.st52{fill:#F69033;}
	.st53{fill:#F39636;}
	.st54{fill:#F59323;}
	.st55{fill:#F49621;}
	.st56{fill:#F6902A;}
	.st57{fill:#F8EEAA;}
	.st58{fill:#FAB655;}
	.st59{fill:#F5C672;}
	.st60{fill:#F6BC57;}
	.st61{fill:#F9AB43;}
	.st62{fill:#F59025;}
	.st63{fill:#F29622;}
	.st64{fill:#F49535;}
	.st65{fill:#FAA440;}
	.st66{fill:#F9A257;}
	.st67{fill:#EA9C5B;}
	.st68{fill:#F79225;}
	.st69{fill:#F09522;}
	.st70{fill:#F89E1D;}
	.st71{fill:#F59622;}
	.st72{fill:#F29628;}
	.st73{fill:#EAA323;}
	.st74{fill:#C69668;}
	.st75{fill:#EB9D23;}
	.st76{fill:#F9DD88;}
	.st77{fill:#F59226;}
	.st78{fill:#DD8631;}
	.st79{fill:#E49D4F;}
	.st80{fill:#EB984B;}
	.st81{fill:#F0E09D;}
	.st82{fill:#F5B34D;}
	.st83{fill:#FDC868;}
	.st84{fill:#F1A036;}
	.st85{fill:#FBE5A1;}
	.st86{fill:#F5E99A;}
	.st87{fill:#EFA23E;}
	.st88{fill:#F29B27;}
	.st89{fill:#F3AC44;}
	.st90{fill:#F8A944;}
	.st91{fill:#F7942E;}
	.st92{fill:#F7994D;}
	.st93{fill:#F69126;}
	.st94{fill:#F49431;}
	.st95{fill:#F1A438;}
	.st96{fill:#F29422;}
	.st97{fill:#F7B63F;}
	.st98{fill:#BF7E39;}
	.st99{fill:#F7B057;}
	.st100{fill:#F39520;}
	.st101{fill:#0A0A0A;}
	.st102{fill:#0B0C0C;}
	.st103{fill:#090909;}
	.st104{fill:#0C0C0C;}
	.st105{fill:#E5DFBF;}
	.st106{fill:#E2AF5D;}
	.st107{fill:#EEC68B;}
	.st108{fill:#FBCD80;}
	.st109{fill:#FACC5A;}
	.st110{fill:#F6C55B;}
	.st111{fill:#FBE790;}
	.st112{fill:#E5DAA4;}
	.st113{fill:#FACE74;}
</style>
<sodipodi:namedview  bordercolor="#666666" borderopacity="1" gridtolerance="10" guidetolerance="10" id="namedview66643" inkscape:current-layer="Layer_1" inkscape:cx="63.355776" inkscape:cy="22.763481" inkscape:pageopacity="0" inkscape:pageshadow="2" inkscape:snap-grids="true" inkscape:snap-to-guides="true" inkscape:window-height="836" inkscape:window-maximized="1" inkscape:window-width="1600" inkscape:window-x="0" inkscape:window-y="27" inkscape:zoom="6.3429549" objecttolerance="10" pagecolor="#ffffff" showgrid="false">
	</sodipodi:namedview>
<rect id="rect58446" x="1" y="-802.9" class="st0" width="462" height="362.1"/>
<g id="g75141" transform="matrix(0.20203853,0,0,0.20203853,27.923471,-123.49811)">
	<path id="path58448" inkscape:connector-curvature="0" d="M475.8,726c-0.2-9,0.7-20.3-1.5-31.4c-2.1-10.6-6.9-19.3-17.4-23.1
		c-18.2-6.6-36.4-6.6-54.3,1.4c-5.1,2.3-7.4,6.8-7.8,12.1c-0.2,2.4,0,4.9,0,7.4c0,10.4,8.5,16,18,11.9c3.4-1.5,6.5-3.6,9.8-5.5
		c3.6-2,7.2-1.8,10.9-0.7c4.5,1.3,3.8,5.1,3.7,8.5s-2.7,3.6-5.2,3.6c-6.5,0-13.1,0.2-19.5,1.5c-10.6,2.1-19.9,6.2-23.9,17
		c-4.4,12.1-3.4,24,5.3,34.1c11.4,13.1,35.8,17.1,50.4,8c5.3-3.3,10.2-4.6,16.4-4.3c10.1,0.6,14.8-4.3,15.1-14.2
		C476,743.9,475.8,736.1,475.8,726L475.8,726z M430.5,746.8c-4,0.5-5.3-2-5.3-5.6c0-3.7,1.7-5.7,5.8-5.5c4.7,0.2,8.7,2.6,8.5,5.7
		C439.4,744.4,435.6,746.9,430.5,746.8z"/>
	<path id="path58450" inkscape:connector-curvature="0" class="st1" d="M-90.6,700.7c0-26,0-52,0-78c0-6.3,1.1-7.5,7.5-7.5
		c12.7,0,25.5,0,38.2,0c0.6,0,1.3,0,1.9,0c3.7,0.2,6.5,2.1,7,5.7c0.6,3.8-2.3,5.8-5.6,7.1c-2.4,0.9-4.9,0.6-7.2,0.8
		c-5.5,0.6-12.2-2.5-16,1.4c-3.8,3.9-1.3,10.7-1.3,16.1c-0.1,36.8-0.1,73.6-0.1,110.4c0,1.2,0,2.3,0,3.4c0.4,10,2.4,12.2,12.3,13.3
		c3.6,0.4,7.1,0.2,10.8,0.4c4,0.1,5.7,2.1,5.7,6.3c0,4-1.4,6.3-5.6,6.4c-13.9,0.1-27.8,0.1-41.7,0c-4.5,0-6.1-2.5-6.1-7
		C-90.5,753.3-90.6,727-90.6,700.7L-90.6,700.7z"/>
	<path id="path58452" inkscape:connector-curvature="0" class="st1" d="M526.9,709.6c0,25.9,0,51.6,0,77.5c0,6.5-1.4,8.2-8.1,8.2
		c-12.5,0-24.8,0-37.3-0.1c-1.2,0-2.3-0.2-3.4-0.4c-3.2-0.6-5.5-2.3-5.6-5.7c-0.2-3.7,1.9-5.8,5.2-6.6c5-1.4,10.1-0.5,15.2-0.5
		c9.1-0.1,9.5-0.4,9.5-9.3c0-40.8,0-81.8,0-122.6c0-9.7-3-12.9-12.7-13.4c-3.8-0.2-7.5-0.2-11.3-0.5c-4.3-0.1-5.1-3.3-5.1-6.5
		c0-3.3,1.3-6.1,5.5-6.1c14.2,0,28.5,0,42.7,0c4.4,0,5.5,2.8,5.5,6.5c0,9.5,0,19,0,28.5C526.9,675.7,526.9,692.7,526.9,709.6
		L526.9,709.6z"/>
	<path id="path58454" inkscape:connector-curvature="0" class="st2" d="M-17.7,707.4c0-16.4,0-32.8,0-49c0-3.1-0.7-5.5-3.2-7.7
		c-5.3-4.7-4-11-2.7-17c1.2-5.1,4.7-8.1,10.1-8.7c7.5-0.9,15.1-0.8,22.5-0.2c8.2,0.7,12.2,6.1,12.3,15.4c0.1,17.2,0,34.3,0,51.5
		c0,1.5-1.2,3.7,0.7,4.4c2.4,0.8,2.6-1.9,3.6-3.2c3.9-5.5,7.6-11,11.5-16.5c6.1-8.5,21.6-12.1,31-7.2c6.2,3.2,8,10.2,3.7,16.7
		c-5.6,8.7-11.5,17.1-17.6,25.3c-2.5,3.4-2.8,5.9,0.1,9.4c9,10.4,17.9,21.2,26.6,32c4.7,6.1,3.6,13.2-2.3,17.1
		c-1.1,0.7-2.3,1.3-3.6,1.5c-7.6,1.4-15.3,1.4-22.8-0.2c-3.8-0.8-6.4-3.8-8.8-6.8c-6.1-7.5-12.2-14.8-18.4-22.3
		c-0.8-1.1-1.7-3-3.3-2.3c-1.8,0.7-1.1,2.5-1.1,3.9c0,4.6,0,9.1,0,13.8c-0.1,9.1-3.4,13.3-12.5,14.5c-4.5,0.6-9.1,0.5-13.6-0.1
		c-8.3-1.1-12.2-5.8-12.2-14.4C-17.7,740.7-17.7,724.1-17.7,707.4L-17.7,707.4L-17.7,707.4z"/>
	<path id="path58456" inkscape:connector-curvature="0" class="st3" d="M184.3,707.7c0-16.7,0-33.3,0-50.1c0-2.6-0.5-4.6-2.6-6.5
		c-5.7-5-4.9-11.4-3.2-17.7c1.5-6.1,6.3-8.5,12.2-8.8c6.5-0.2,13.1-0.5,19.6-0.1c8.4,0.5,13.2,6.2,13.2,15.3c0,17.4,0,35,0,52.6
		c0,1.3-0.8,3.3,1.1,3.8c1.5,0.4,2-1.4,2.7-2.5c3.8-5.5,7.6-11,11.4-16.5c6.3-9.1,21.7-13.1,31.7-8.2c6.2,3.1,7.8,10.6,3.4,17.3
		c-5.8,8.7-11.7,17.3-17.9,25.8c-2.3,3.1-2.1,5.1,0.5,8.1c8.8,10.1,17.2,20.6,25.8,30.9c3.6,4.2,5.2,8.9,3,14
		c-2.3,5.2-7.1,6.9-12.5,7c-3.8,0.1-7.5,0.1-11.3,0c-5.8-0.2-10.8-2-14.6-6.8c-6.1-7.5-12.3-14.8-18.5-22.2c-1.2-1.4-2.1-4-4.3-3.3
		c-2.1,0.7-0.9,3.2-0.9,4.9c-0.1,4.4,0,8.8-0.1,13.3c0,8.4-4.2,13.3-12.5,14c-4.5,0.4-9.1,0.4-13.6-0.2c-8.3-1.1-12.2-5.9-12.2-14.4
		C184.3,740.8,184.3,724.3,184.3,707.7z"/>
	<path id="path58496" inkscape:connector-curvature="0" class="st4" d="M379.8,738.9c0-11.9,0-23.7,0.1-35.6
		C382.4,715.2,382.6,727.1,379.8,738.9z"/>
	<path id="path58664" inkscape:connector-curvature="0" class="st4" d="M379.9,703.3c-2.5-4.7-4.3-9.8-5.9-15
		C377.4,692.8,379.5,697.8,379.9,703.3z"/>
	<path id="path58818" inkscape:connector-curvature="0" class="st4" d="M373,754.7c0-3.1,1.4-5.3,3.9-7
		C376.6,750.6,374.8,752.7,373,754.7z"/>
	<path id="path58820" inkscape:connector-curvature="0" class="st4" d="M376.8,747.8c0.6-3.1,0.7-6.4,2.8-9
		C379.9,742.3,379,745.2,376.8,747.8z"/>
	<path id="path58898" inkscape:connector-curvature="0" class="st4" d="M369.9,758.6c0-2.1,1.2-3.3,3.1-3.9
		C372.4,756.4,371.6,757.8,369.9,758.6z"/>
	<path id="path58928" inkscape:connector-curvature="0" class="st5" d="M-12.6,706.9c0-16.7-0.1-33.3,0-50.1c0-3.7-0.9-6.6-3.9-9
		c-4.7-3.7-3.2-8.7-2.1-13.1c1.1-4.5,5-5.1,9-5.1c5.3,0,10.8-0.1,16.1,0c6.8,0.1,9.6,2.8,9.6,9.6c0.1,22.9,0.1,45.8,0.1,68.7
		c0,1.4-0.9,3.7,1.2,4.2c1.7,0.4,2.3-1.7,3-2.8c6.8-9.7,13.6-19.6,20.4-29.4c4.6-6.8,17.8-10.1,25.2-6.4c3.7,1.9,4.2,6.5,1.1,11
		c-6.5,9.4-13.1,18.7-19.8,28c-2.1,3-2,4.7,0.4,7.5c9.6,11.2,18.9,22.5,28.2,33.8c2.4,2.8,4,5.7,2.3,9.4c-1.7,3.3-5,3.8-8.4,3.7
		c-18.9-0.2-15.8,1.8-28.6-13.8c-5.1-6.2-10.2-12.3-15.3-18.5c-1.9-2.4-4.2-4.5-7.5-3.4c-3.2,1.1-2.5,4.2-2.5,6.8
		c0,6.6,0,13.4,0,20.2c0,5.6-2.3,8.3-7.7,8.7c-4.3,0.4-8.5,0.2-12.7-0.1c-5.5-0.5-7.6-3.3-7.6-9.4
		C-12.6,740.6-12.5,723.8-12.6,706.9C-12.5,706.9-12.6,706.9-12.6,706.9L-12.6,706.9z"/>
	<path id="path58930" inkscape:connector-curvature="0" class="st5" d="M189.6,706.8c0-16.5-0.1-33,0-49.6c0-3.9-0.9-7-4-9.5
		c-4.6-3.7-3.1-8.5-2-13.2c1.1-4.3,4.9-4.9,8.7-5c5.3-0.1,10.8-0.1,16.1,0c7.2,0.1,10,2.8,10.1,10.2c0,17.8,0,35.7,0,53.5
		c0,5.2,0,10.4,0.1,15.7c0,1.1-0.6,2.5,0.8,3c1.7,0.6,2.1-1.1,2.8-2.1c6.9-10,13.8-19.9,20.6-29.9c4.9-7.1,17.2-10.4,25-6.6
		c3.9,1.9,4.6,6.2,1.4,10.9c-6.5,9.4-13.1,18.9-19.8,28c-2.3,3-2.4,5,0.2,8c9.7,11.3,19,22.9,28.6,34.2c2.3,2.6,3.2,5.3,2,8.5
		c-1.3,3.2-4.3,3.8-7.4,3.8c-4.2,0.1-8.2,0.1-12.2,0.1c-4.7,0-8.3-2.3-11.3-5.9c-7.1-8.8-14.4-17.4-21.6-26.1
		c-0.9-1.1-1.9-2.3-3.1-3.1c-3.6-2.3-7-0.5-7,3.8c-0.1,7.2,0,14.4,0,21.6c0,7.1-2.6,9.6-9.8,9.6c-2.5,0-4.9,0-7.4,0
		c-8.4,0-11-2.5-11-11.2C189.6,739.5,189.6,723.2,189.6,706.8L189.6,706.8L189.6,706.8z"/>
	<path id="path58932" inkscape:connector-curvature="0" class="st6" d="M466.8,759.4c-2.6,2.4-5.6,1.8-8.5,1.1
		c-4.3-2.3-8.1-1.2-11.7,1.5c-3,1.8-5.6,4.5-9.5,3.3c-0.7-0.2-1.3-0.7-1.4-1.5c1.4-2.3,4.3-4.2,1.1-7.4c-1.4-1.5,0.6-2.7,2.1-3.4
		c2-0.6,3.7,0.1,5.3,1.2c1.8,1.2,3.7,1.7,5.7,0.1c0.9-0.7,1.4-1.7,1.3-2.8c0.1-1.7,0-3.4,1.1-5c1.1-0.8,2.3-0.8,3.6-0.4
		c1.4,0.8,1.4,2.1,1.7,3.6c0.2,1.8,0.5-0.4,0.8-0.1c3.8-0.7,5.3,3,8.1,4.3C468.4,755.4,467.1,757.5,466.8,759.4L466.8,759.4z"/>
	<path id="path58934" inkscape:connector-curvature="0" class="st7" d="M466.8,759.4c-1.2-1.5,0.9-3.4-0.7-4.9
		c-1.9-2.6-5.6-3.6-6.2-7.2c-0.4-11.9,0-23.7-0.1-35.6c0-1.9,0.1-3.9-0.5-5.8c-0.5-2-0.7-4.2,0.5-6.1c3.9-0.5,2.1,3.2,3.3,4.6
		c0.4,1.2,0.4,2.3,0.4,3.4c0,11,0,22.1,0,33.1c0,2-0.4,4.3,1.1,6.1c1.5,1.2,2.3,3,3.7,4.2c-0.7-2.7-0.4-5.3-0.6-8.1
		c-0.1-1.4,0-2.7,0-4.2c0-10.3,0-20.6,0-31c0-1.4-0.1-3,0-4.4c0.1-2-0.1-4,0.2-5.9c0.2-0.8,0.5-1.7,1.3-2.1c1.3,2.8,0.9,5.9,1.2,9
		c0.2,12.9,0.2,25.8,0,38.7c0.4,2.5,0.5,5.1,0,7.6c0.2,0.8,0.2,1.8,0,2.6C470.4,756.3,468.4,757.7,466.8,759.4L466.8,759.4z"/>
	<path id="path58936" inkscape:connector-curvature="0" class="st8" d="M408.1,675.9c0.2-0.1,0.6-0.1,0.8,0c3-0.7,6.1-1.3,9.1-1.2
		c2.8,0.7,4.2,1.7,0.8,3.7c-1.1,0.7-2.3,1.3-3.3,2c-2.1,0.6-3.6,1.7-3.8,4.3c-0.1,1.9-1.4,3.6-2.3,5.2c-0.5,1.7-4.2-0.6-3.4,2.7
		c0.2,2.1,0.5,4.3-2.5,4.6c-1.2-0.2-2-0.7-2.6-1.8c-0.9-2.8-0.6-5.8-0.4-8.8c0.5-1.8,2.8-1.7,3.3-3.4c0.2-1.4,0.1-2.7,0.6-4.2
		C405.1,677.4,407,677.1,408.1,675.9z"/>
	<path id="path58938" inkscape:connector-curvature="0" class="st9" d="M398.2,759.6c-1.7-0.8-2-2.5-2.8-3.9
		c-0.1-4-3.9-7.2-2.4-11.5c2,1.9,4-1.2,6.1,0c1.7,0.9,2.7,2.3,3.2,4c0.8,3.3,1.2,6.8,4,9.3c1.4,1.2,2.3,3.1,1.1,5.1
		c-0.6,0.5-1.2,0.7-2,0.8c-0.7,0-1.4-0.1-2-0.6C401.7,761.5,401.4,758.3,398.2,759.6L398.2,759.6z"/>
	<path id="path58940" inkscape:connector-curvature="0" class="st10" d="M469.1,695.6c-0.1,0.7-0.2,1.3-0.4,2
		c-2.8-1.7-4.4-4.6-5.7-7.4c-1.5-3.1-3.2-5.9-5.5-8.5c-0.2-0.7-0.2-1.5,0-2.3c0.5-0.7,1.1-1.2,1.9-0.7
		C465.3,682.9,468.4,688.6,469.1,695.6z"/>
	<path id="path58942" inkscape:connector-curvature="0" class="st11" d="M436.6,764.3c3.9,0.9,6.6-1.7,9.8-3c0.9-0.5,1.1,0,0.9,0.8
		c-7.8,6.5-16.6,9.3-26.7,7.2c0.9-1.4,2.5-1.3,3.8-1.8C428.7,767.1,432.9,766.8,436.6,764.3z"/>
	<path id="path58944" inkscape:connector-curvature="0" class="st12" d="M442.4,673c2.1-0.1,4.2,0,6.1,0.9c-0.1,0.2-0.2,0.4-0.5,0.5
		c-1.4,0.9-3.1,0.6-4.5,1.1c-1.1,3.1,3.7,3.7,2.8,6.6c-0.6,0.5-1.3,0.7-2,0.7c-1.3,0.1-2.6,0-3.8-0.5c-3.1-2.6-4.4-6.8-7.8-9
		c-0.4-0.2,0.2-0.8,0.7-0.9C436.4,672.7,439.5,672.1,442.4,673L442.4,673z"/>
	<path id="path58946" inkscape:connector-curvature="0" class="st13" d="M393.4,743.7c-0.6,4.2,3.2,7.6,1.9,11.9
		c-5.1-7.8-5.5-16.1-2.1-24.8c0.2,0.2,0.5,0.4,0.7,0.6C395.1,735.6,395.7,739.8,393.4,743.7z"/>
	<path id="path58948" inkscape:connector-curvature="0" class="st14" d="M442.4,673c-3.2,0.1-6.4,0.1-9.6,0.2
		c-2.7,2-6.1,0.6-8.9,1.4c-0.9,0.2-1.8,0.4-2.7,0.4c-0.8,0-1.7,0.2-2.3,0.9c-3.3,0-6.6,0-10,0C419.8,670.9,431,671.4,442.4,673z"/>
	<path id="path58950" inkscape:connector-curvature="0" class="st6" d="M470.3,743.3c0-12.9,0-25.9,0-38.7
		C470.8,717.6,470.8,730.4,470.3,743.3z"/>
	<path id="path58952" inkscape:connector-curvature="0" class="st15" d="M393.2,730.9c1.5-5.9,5.5-9.6,11.2-11.6
		c0.5-0.4,0.8-0.2,1.2,0.1c0.6,2.1-0.9,3.2-2.4,4.2c-1.4,0.8-2.5,1.9-3.2,3.4c-1.1,1.4-2.5,2.6-3.8,3.8c-0.7,0.6-1.5,0.9-2.5,0.5
		C393.4,731.1,393.3,731,393.2,730.9L393.2,730.9z"/>
	<path id="path58954" inkscape:connector-curvature="0" class="st16" d="M401.4,695.5c0.6,0.4,1.3,0.7,1.9,1.1
		c3.6,0.4,6.8-0.6,9.8-2.3c1.7-0.9,3.2-2.1,5.3-1.1c1.1,1.1,0.5,1.8-0.6,2.4c-3.1,1.4-5.6,3.9-9.1,4.3c-2.7,0.2-5.6,0.4-7.5-2.1
		C400.7,696.8,400.7,696.2,401.4,695.5L401.4,695.5z"/>
	<path id="path58956" inkscape:connector-curvature="0" class="st17" d="M419.8,715.6c1.3-0.1,2.6-0.2,4-0.4c4.5-0.8,9-0.1,13.5-0.5
		c0.6,0,1.1,0.1,1.5,0.5c0.5,1.3,0,2.1-1.1,2.7c-2,0.7-4.2,0.6-6.2,0.2c-1.3-0.4-2.7-0.7-4.2-0.6c-2.7,0.5-5.3,0.7-8.1,0
		C418.2,716.6,418.8,716,419.8,715.6L419.8,715.6z"/>
	<path id="path58958" inkscape:connector-curvature="0" class="st18" d="M401.4,695.5c0,0.7-0.1,1.4-0.1,2c-3.2-6.1-2.4-15,1.8-19
		c0.1,0.1,0.4,0.2,0.6,0.4c0.1,0.4,0.1,0.8,0.1,1.2c-0.5,1.3-1.1,2.6-1.3,4c-0.1,0.6-0.5,1.1-0.8,1.5
		C401.4,689.1,401.4,692.3,401.4,695.5z"/>
	<path id="path58960" inkscape:connector-curvature="0" class="st19" d="M442.4,709.2c0-3.2,0-6.4,0-9.6c0.2-0.1,0.5-0.1,0.7-0.2
		c1.1,0.4,1.3,1.2,1.9,2s-0.9,3.3,1.9,2.5c0.7,1.2,0.6,2.4,0.1,3.6c-1.5,1.4-1.5,4.5-4.7,4C442,710.6,442,709.9,442.4,709.2
		L442.4,709.2z"/>
	<path id="path58962" inkscape:connector-curvature="0" class="st20" d="M419.8,715.6c-0.4,0.6-0.6,1.1-0.9,1.7
		c-0.5,0.6-1.2,0.9-1.9,1.1c-2.3,0.1-4.4,0.5-6.3,1.7c-1.8,0.5-3.7,0.7-5.2-0.6c-0.4,0-0.7-0.1-1.1-0.1
		C409.1,716.3,414.3,715.7,419.8,715.6L419.8,715.6z"/>
	<path id="path58964" inkscape:connector-curvature="0" class="st21" d="M447.4,762.2c-0.4-0.2-0.6-0.5-0.9-0.8
		c4-3.8,8.8-4.2,11.7-0.9C454.5,760.5,450.7,760.4,447.4,762.2z"/>
	<path id="path58966" inkscape:connector-curvature="0" class="st22" d="M417.9,695.5c0.4-0.6,0.8-1.2,1.2-1.8
		c0.1-0.2,0.2-0.4,0.2-0.6c1.2-1.2,2.6-1.8,4-2.4c0.9-0.2,1.8-0.4,2.7-0.4c1.9,0,3.8-0.1,5.7,0.1c0.5,0,0.9,0.1,1.4,0.4
		c1.1,0.4,2.3,0.7,3.2,1.4c0.2,0.2,0.4,0.6,0.4,0.8c0,0.2-0.1,0.5-0.1,0.5C430.2,692.1,423.9,692.8,417.9,695.5L417.9,695.5z"/>
	<path id="path58968" inkscape:connector-curvature="0" class="st23" d="M436.7,693.6c0-0.2,0-0.6-0.1-0.8c0.2-0.7,0.8-1.1,1.4-1.4
		c0.5-0.2,0.8-0.2,1.3-0.2c1.8,0.4,2.8,1.5,3.8,2.8c0.5,1.2,0.6,2.4,0.5,3.6c-0.1,0.7-0.4,1.4-0.9,2h-0.4
		C440.8,697.3,439.9,694.3,436.7,693.6z"/>
	<path id="path58970" inkscape:connector-curvature="0" class="st24" d="M459.6,678.8c-0.5,0.4-0.9,0.8-1.4,1.2
		c-0.9,0.9-2.1,1.2-3.4,0.9c-0.5-0.1-0.9-0.2-1.4-0.5c-1.2-0.9-2-2.1-2.4-3.6c0-0.5,0.2-0.9,0.6-1.2c1.7-0.1,3.2,0.4,4.6,1.4
		C456.9,678.3,458.9,677.4,459.6,678.8L459.6,678.8z"/>
	<path id="path58972" inkscape:connector-curvature="0" class="st25" d="M438.4,715.1c-4.9,0.4-9.8,0.5-14.7,0
		c5.1-1.7,10.7,0.5,15.7-2C440.1,714.3,439.5,714.9,438.4,715.1z"/>
	<path id="path58974" inkscape:connector-curvature="0" class="st26" d="M398.2,759.6c3.6-2.6,4.3,0.2,5.1,2.7
		c-0.4,0.6-0.8,0.6-1.3,0.2C400.4,761.8,399.1,760.9,398.2,759.6z"/>
	<path id="path58976" inkscape:connector-curvature="0" class="st17" d="M438.4,715.1c0.4-0.6,0.7-1.3,1.1-1.9c0.9-1.3,2-2.7,3-4
		c0.1,0.7,0.1,1.4,0.2,2.1c0.6,4,0,4.6-4,3.9C438.6,715.3,438.4,715.1,438.4,715.1L438.4,715.1z"/>
	<path id="path58978" inkscape:connector-curvature="0" class="st27" d="M416.9,769.1c-3-0.1-5.6-0.9-8.1-2.6
		c0.1-0.2,0.2-0.4,0.5-0.6c1.7-0.9,3.3-0.8,5.1-0.4c1.2,0.5,1.9,1.4,2.6,2.4C417.3,768.3,417.3,768.7,416.9,769.1z"/>
	<path id="path58980" inkscape:connector-curvature="0" class="st28" d="M456.1,677.1c-1.7-0.4-3.3-0.7-5-1.1
		c-1.2,0.9-2.3,0.8-3.1-0.4c-0.1-0.5-0.1-0.9,0.2-1.4l0.1-0.2C451.2,674.5,454.3,674.3,456.1,677.1z"/>
	<path id="path58982" inkscape:connector-curvature="0" class="st29" d="M416.9,769.1c0-0.2,0-0.6,0-0.8c0.4-0.5,0.8-0.7,1.3-0.9
		c2.3-0.4,4.5-0.8,6.4,0.9c-1.1,1.4-2.7,0.8-4.2,1.1C419.4,769.3,418.2,769.2,416.9,769.1z"/>
	<path id="path58984" inkscape:connector-curvature="0" class="st30" d="M409,766.6c-1.5-0.1-3-0.7-3.9-2c0.1-0.2,0.4-0.5,0.5-0.6
		c2-0.5,4-1.2,3.8,2.1C409.2,766.2,409.1,766.4,409,766.6L409,766.6z"/>
	<path id="path58986" inkscape:connector-curvature="0" class="st18" d="M408.1,675.9c-0.9,0.9-2,2-3,3c-0.6,0.5-1.2,0.6-1.8,0.1
		c-0.1-0.1-0.4-0.4-0.5-0.5C404.3,677.1,406,676,408.1,675.9z"/>
	<path id="path58988" inkscape:connector-curvature="0" class="st6" d="M470.2,753.5c0-0.8,0-1.8,0-2.6
		C470.8,751.8,470.9,752.6,470.2,753.5z"/>
	<path id="path58990" inkscape:connector-curvature="0" class="st30" d="M402,762.6c0.5-0.1,0.9-0.1,1.3-0.2c0.6,0,1.3,0,1.9,0.1
		c0.5,0.5,0.6,1.1,0.2,1.7c-0.1,0.1-0.4,0.4-0.5,0.5C403.5,764.6,402.7,763.6,402,762.6z"/>
	<path id="path58992" inkscape:connector-curvature="0" class="st4" d="M373.5,744.6c3.8-17.4,4.7-34.8-2-51.9
		c4.3,3.4,5.1,8.8,5.7,13.4c1.1,7.7,0.7,15.5,0.2,23.4C377.3,734.7,377.6,740.4,373.5,744.6L373.5,744.6z"/>
	<path id="path58994" inkscape:connector-curvature="0" class="st4" d="M367.7,754.5c0.9-2.3,2.3-4.3,4-5.9
		C371.5,751.3,370.3,753.4,367.7,754.5z"/>
	<path id="path58996" inkscape:connector-curvature="0" class="st4" d="M371.7,748.6c0.1-1.7,0.8-3,1.9-4
		C374,746.3,373.7,747.8,371.7,748.6z"/>
	<path id="path59746" inkscape:connector-curvature="0" class="st31" d="M450.4,754.5c-1.8,3.3-4.6,2.6-6.6,0.8
		c-1.7-1.4-3.2-1.9-5.1-1.9c-0.4-2.1,3-2.1,2.5-4.3c0.5-1.5,1.8-2.5,2.8-3.6c2-2.3,1.3-5,1.5-7.6c-0.1-1.2-0.1-2.5,0.7-3.6
		c0.7-0.5,1.4-0.6,2.3-0.7c5,0.6,5,0.6,5.2,7.1c0,2,0.1,3.9-1.3,5.6c0,2,0,3.9,0,5.9C451.9,753.5,449.6,752.5,450.4,754.5
		L450.4,754.5z"/>
	<path id="path59748" inkscape:connector-curvature="0" class="st32" d="M405.4,764.1c-0.1-0.6-0.1-1.2-0.2-1.7c0.6,0,1.3,0,1.9,0
		c4.2-2.4,7.4-3.6,11.2,1.5c2.3,3.1,10.3,1.3,13.8-1.7c1.2-0.7,2.3-0.6,3.3,0.4c0.1,0.2,0.2,0.5,0.4,0.7c0.4,0.4,0.6,0.6,0.9,0.9
		c0,0.7,1.5,1.5,0.9,1.7c-4.3,0.4-8.2,3.6-12.7,2.4c-2.3,0-4.5-0.1-6.8-0.1c-0.9-0.6-2.1-0.9-3-1.8c-1.9-0.1-3.8-0.2-5.6-0.4
		C408.7,764,406.8,764.5,405.4,764.1L405.4,764.1z"/>
	<path id="path59750" inkscape:connector-curvature="0" class="st33" d="M441.5,749.6c3,4.3-2.7,2.1-3,3.9c-0.1,0.9-2.7,1.1-0.8,3
		c3.3,3.2,2.5,5.3-2.1,6.9l0,0c-0.5-0.9-0.2-2-0.6-2.8c-1.5-1.3-3.4-2.4-3.7-4.6c-0.5-1.2-1.7-0.9-2.6-1.2c-1.1-0.5-2.6-0.5-1.8-2.4
		C431.6,750.8,436.6,750.6,441.5,749.6z"/>
	<path id="path59752" inkscape:connector-curvature="0" class="st34" d="M461.2,748.7c1.1,2.5,5,2.5,5,5.8c-3.4-0.4-4.6-4.2-7.8-5
		c-0.8-0.7-0.9-1.7-0.8-2.6c0-0.5,0.1-0.9,0.4-1.4c0.7-4.2,0.7-4.2,2.8-4.5C461.1,743.6,460,746.2,461.2,748.7L461.2,748.7z"/>
	<path id="path59754" inkscape:connector-curvature="0" class="st35" d="M452.3,746.7c0-2,0-3.9,0-5.9c4.6-1.2,5.5-0.2,4.5,5.2
		c-0.2,0.2-0.4,0.5-0.6,0.7C454.9,746.7,453.6,746.7,452.3,746.7z"/>
	<path id="path59756" inkscape:connector-curvature="0" class="st36" d="M458.2,746.7c0,0.9,0,1.9,0,3c-0.4,1.4,0.7,3.2-1.3,4.7
		c-1.1-2.6-0.5-5.2-0.6-7.6l0,0C456.9,746.1,457.5,746.2,458.2,746.7L458.2,746.7z"/>
	<path id="path59758" inkscape:connector-curvature="0" class="st37" d="M450.4,754.5c-1.9-0.2-2.6-1.7-1.5-3c1.3-1.5,2,1.5,3.4,0.9
		C452.3,753.9,451.6,754.5,450.4,754.5z"/>
	<path id="path59760" inkscape:connector-curvature="0" class="st38" d="M465.1,748.7c-3-0.4-3-2.5-3-4.7c0-12.2,0.1-24.4,0.1-36.7
		c0.9-0.6,1.8-0.5,2.5,0.4c1.4,2.7,0.9,5.7,0.9,8.7c0,8.3,0.1,16.6-0.1,24.9c-0.2,2.4,0.5,4.7,0.8,7
		C466.1,748.9,465.6,749,465.1,748.7L465.1,748.7z"/>
	<path id="path59762" inkscape:connector-curvature="0" class="st39" d="M458.2,681.9c1.7,0,2.7,1.4,3.3,2.5
		c2.6,4.3,4.9,8.8,7.4,13.3c0,1.9,0,3.9,0,5.8c-1.2,0.4-1.8-0.5-2-1.4c-0.5-1.9-0.9-0.5-1.4,0c-3.6-0.5-2.5-4.2-4-6.1
		c-0.5-1.5-1.1-3.1-1.9-4.4c-0.5-1.1-0.6-2.3-0.7-3.4C458.9,685.9,456.7,684.1,458.2,681.9L458.2,681.9z"/>
	<path id="path59764" inkscape:connector-curvature="0" class="st40" d="M461.2,748.7c-2-2.4-0.5-5.2-1.1-7.8
		c-0.7-0.7-1.1-1.5-1.2-2.5c-0.4-9.3-0.1-18.6-0.1-27.9c0-1.4,0-3,0.7-4.3c0.2-0.2,0.5-0.5,0.7-0.6c1.5,1.5,0.8,3.3,0.9,5.1
		C461.2,723.3,461.2,736,461.2,748.7L461.2,748.7z"/>
	<path id="path59766" inkscape:connector-curvature="0" class="st41" d="M466.1,748.7c-2.3-1.4-2-3.7-2-5.9c1.7-1.1,0.4-4.5,3.4-4.4
		c0.8,0.1,1.1,0.8,1.4,1.4c0,1.3,0,2.7,0.1,4c-1.1,1.8-0.1,3.8-0.6,5.7C467.1,750.5,466.6,749.5,466.1,748.7L466.1,748.7z"/>
	<path id="path59768" inkscape:connector-curvature="0" class="st42" d="M462.1,695.6c2.5,1.2,0.6,5.2,3.9,5.9
		c1.4,1.8,1.5,3.8,0.4,5.7c-0.7,0.7-1.5,0.8-2.4,0.1c-0.6,0-1.3,0-1.9,0c0-0.9-0.1-1.9-0.1-3C462,701.6,460.2,698.6,462.1,695.6z"/>
	<path id="path59770" inkscape:connector-curvature="0" class="st43" d="M468.9,739.8c-0.4-0.4-0.6-0.6-0.9-0.9
		c-0.9-0.9-1.4-2.3-1.4-3.6c0-8.8-0.6-17.4,0.4-26.2c0.4-0.9,0.8-1.8,2-1.7C468.9,718.2,468.9,729,468.9,739.8L468.9,739.8z"/>
	<path id="path59772" inkscape:connector-curvature="0" class="st44" d="M460.1,699.5c0,2,0,3.9,0.1,5.9h-0.1
		c-0.5,0.4-0.8,0.2-1.2,0c-0.7-0.9-1.1-2-1.4-3.2c-0.4-3.8-2.8-6.9-3.9-10.4c-0.1-0.7,0-1.4,0.5-2c3-0.7,3.4,2.3,5,3.6
		C460,695.3,461.7,697.2,460.1,699.5L460.1,699.5z"/>
	<path id="path59774" inkscape:connector-curvature="0" class="st45" d="M460.1,699.5c-0.6-2-1.3-3.9-1.9-5.9
		c-0.6-0.7-0.6-1.4-0.1-2.1c0.7-0.5,1.4-0.5,2.1,0.1c2.6,0.4,1.8,2.4,2,3.9c0,3,0,5.9,0,8.9C460.2,703.2,462,700.7,460.1,699.5z"/>
	<path id="path59776" inkscape:connector-curvature="0" class="st46" d="M469,707.4c-0.4,0.4-0.6,0.6-0.9,0.9c-1.2,0.6-2,0.7-2-0.9
		c0-2,0-3.9,0-5.9c0.2-0.5-0.1-2,1.1-0.6c0.7,0.8,1.2,1.7,1.8,2.6C468.9,704.8,468.9,706.1,469,707.4L469,707.4z"/>
	<path id="path59778" inkscape:connector-curvature="0" class="st47" d="M467.9,749.6c0.4-1.9-0.8-4.2,1.1-5.8
		c0,2.8-0.1,5.8-0.2,8.7c0,0.1-0.2,0.2-0.4,0.2c-0.1,0-0.4-0.1-0.5-0.1C467.4,751.6,467.1,750.6,467.9,749.6z"/>
	<path id="path59780" inkscape:connector-curvature="0" class="st48" d="M467.9,749.6c0,0.9,0,1.9,0,3c-1.8-0.7-2.1-2.5-3-3.9
		c0.4,0,0.7,0,0.9,0C466.6,748.9,467.4,749.3,467.9,749.6L467.9,749.6z"/>
	<path id="path59782" inkscape:connector-curvature="0" class="st49" d="M419.1,693.8c-3.1-0.9-5,1.5-7.2,2.7
		c-3,1.4-5.7,1.7-8.4,0.1c3.1-0.7,1.4-3.2,1.9-4.9c1.4-1.5,4.7,0.4,5.1-3c0.7-1.8,2.4-2,3.9-2.1c2.4,0.4,3.1-1.2,3.8-3.1
		c0.4-0.2,0.8-0.4,1.3-0.5c2.5,0.5,5.1-0.1,7.6,0.6c0.5,0.6,0.6,1.2,0.5,1.9c-1.8,3-4.9,4.4-7.1,6.8
		C419.8,692.8,419.4,693.3,419.1,693.8L419.1,693.8z"/>
	<path id="path59784" inkscape:connector-curvature="0" class="st50" d="M415,687.8c-1.5,0.2-3.6-0.6-3.9,2c-0.7,0.6-1.3,0.5-1.9,0
		c-0.6-3,2.1-5.1,1.9-8.2c-0.1-2,2.4-1.5,4-1.7c2.4,1.3,1.1,3.4,1.2,5.2C416.1,686.1,415.7,687.1,415,687.8L415,687.8z"/>
	<path id="path59786" inkscape:connector-curvature="0" class="st51" d="M415,684.8c-0.4-1.7,1.1-3.3,0-4.9c0.9-2.1,3.3-2.4,5.1-3.3
		l-0.1-0.4c-0.4-0.1-0.6-0.1-0.9-0.2c0-0.8,0.2-1.5,1.1-1.9c2.4,0.5,4.7,1.2,2.6,4.3c-1.1,1.5,0.5,2.4,0.5,3.6
		c-0.9,1.5-3.1,0.6-4.2,2c-0.4,0-0.6,0-0.9,0C417.2,684.7,416.3,685.5,415,684.8L415,684.8z"/>
	<path id="path59788" inkscape:connector-curvature="0" class="st52" d="M409.1,689.7c0.6,0,1.3,0,1.9,0c-1.1,3.6-3.7,2.1-5.9,2
		c-0.8-0.1-2.3,0.4-2.4-0.9c-0.1-1.1,1.1-0.9,1.9-0.9C406.2,689.7,407.7,689.7,409.1,689.7z"/>
	<path id="path59790" inkscape:connector-curvature="0" class="st49" d="M401.4,685.8c0-0.6,0-1.2-0.1-1.8c0.7-0.8,1.2-1.8,2-2.4
		c1.7-0.1,1.1,1.7,1.8,2.3C404.9,686.4,402.9,685.7,401.4,685.8L401.4,685.8z"/>
	<path id="path59792" inkscape:connector-curvature="0" class="st53" d="M405.2,683.9c-0.6-0.6-1.3-1.3-1.9-1.9
		c-0.6-0.7-0.6-1.4,0-2.1c0-0.2,0.1-0.5,0.1-0.7c0.6,0,1.2-0.1,1.8-0.1C405.2,680.6,405.2,682.2,405.2,683.9L405.2,683.9z"/>
	<path id="path59794" inkscape:connector-curvature="0" class="st54" d="M432.7,762.4c-1.1,2.5-2.7,5.2-5.6,4.4
		c-4.2-1.3-10.2,2-12.2-4.7c-0.6-2-3-2.1-3.2-0.8c-0.9,4.2-3,1.1-4.5,1.2c0.4-2-0.6-3.7-2-4.6c-3.4-2.3-3.4-5.7-3.9-9.1
		c2.1-1.2,4,1.2,6.1,0.5c1.7,0.4,2.8,1.5,2.1,3.1c-2.5,5.3,1.2,3.7,3.7,3.4c2,0.7,3.9,1.8,5.9,2c3,1.3,6.2,1.3,9.3,1.9
		C430,760.2,431.6,760.8,432.7,762.4L432.7,762.4z"/>
	<path id="path59796" inkscape:connector-curvature="0" class="st55" d="M393.5,731.2c0.6-0.4,1.2-0.8,1.8-1.2
		c1.3-0.8,2.7-0.6,3.6,0.4c2.1,2.5,4.9,2.6,7.7,2.8c0.2,3.8,2.6,7.4,1.1,11.3c-4.2,1.8-6.1-1.8-9-4.2c0,1.8,2,3,0.7,4.4
		c-1.8-1.1-4.5,2.7-5.9-0.9C393.4,739.5,393.5,735.4,393.5,731.2L393.5,731.2z"/>
	<path id="path59798" inkscape:connector-curvature="0" class="st56" d="M399.2,744.8c-0.1-2.4-3-2.8-3.3-5.5
		c5.7-2,6.6,5.6,11.2,5.5c1.4,1.7,1.4,3.3,0,4.9c-2.5,2.7-3.9-0.9-5.9-0.9C400.5,747.4,400,746.1,399.2,744.8z"/>
	<path id="path59800" inkscape:connector-curvature="0" class="st57" d="M458.2,681.9c0.6,2,1.3,3.9,1.9,5.9
		c-0.6,0.6-1.2,0.6-1.9,0.4c-2.1-1.7-2.8-4.4-5.2-5.9c-2.1-1.5,0.8-1.4,1.3-2.3c1.3,0,2.6,0,3.9,0
		C458.2,680.6,458.2,681.2,458.2,681.9z"/>
	<path id="path59802" inkscape:connector-curvature="0" class="st58" d="M422.9,674c3.2-1.8,6.5-0.6,9.8-0.8c5,0.7,5.6,5.3,7.7,8.5
		c-1.1,1.2-2.4,1.1-3.7,0.6c-2.3-1.2-4.6-2.1-5.8-4.7C429.4,674.3,425.1,676.3,422.9,674L422.9,674z"/>
	<path id="path59804" inkscape:connector-curvature="0" class="st59" d="M448.3,674.2c0,0.2,0.1,0.6,0.1,0.8
		c-1.1,1.8,0.6,2.5,1.3,3.6c0.8,1.3,2.1,2.5,0.2,3.9c-1.3,0.5-2.5,0.5-3.4-0.6c-0.1-0.1-0.1-0.4-0.4-0.4c-2.8-1.2-4.7-3.8-4-6.3
		C442.6,673.4,446,673.9,448.3,674.2z"/>
	<path id="path59806" inkscape:connector-curvature="0" class="st60" d="M446.5,681.9c1.3,0,2.6,0,3.9,0c3.6,2,6.5,4.6,8.3,8.5
		c0.1,0.5,0,0.9-0.4,1.3c0,0.7,0,1.3,0,2c-1.3-1.3-2.6-2.6-3.9-3.9c-0.9-0.4-1.8-0.9-2.6-1.3c-0.9-0.5-1.7-1.2-2.4-2
		c-1.1-2.1-4.9-1.3-4.9-4.5C445.2,681.9,445.8,681.9,446.5,681.9z"/>
	<path id="path59808" inkscape:connector-curvature="0" class="st61" d="M444.5,681.9c1.3,2.3,4.9,1.2,5.8,3.9
		c-3.6,2-6.6-1.5-10.1-1.1c-1.4-0.5-3-0.7-3.7-2.3c0-0.2,0.1-0.5,0.1-0.7c1.3,0,2.6,0,3.9,0C441.8,681.9,443.1,681.9,444.5,681.9z"
		/>
	<path id="path59810" inkscape:connector-curvature="0" class="st61" d="M422.9,674c4.3-0.1,8.9-0.8,10.3,5.1
		c0.4,1.3,3.3,0.4,3.4,2.7l0,0c-4.6,2.4-9.1,1.5-13.8,0c-0.7-1.3-2.5-0.6-3.7-1.8c1.8-1.7,5.8-3.4,0.7-5.9
		C421,674,421.9,674,422.9,674z"/>
	<path id="path59812" inkscape:connector-curvature="0" class="st55" d="M405.4,719.4c1.9-0.1,3.8-0.1,5.7-0.2
		c0.6,0.5,0.8,1.2,0.9,1.9c0,0.7-0.1,1.4-0.5,2c-2.7,1.8,0.8,3.2,0.2,4.9c0,0.5-0.2,0.9-0.5,1.4c-1.1,1.3-2.4,2.5-4.3,2.5
		c-3.1-0.7-5-3.3-7.7-4.9c-0.1-2,0-3.6,2.6-4.2C403.5,722.6,404.7,721,405.4,719.4L405.4,719.4z"/>
	<path id="path59814" inkscape:connector-curvature="0" class="st62" d="M399.2,727.1c3.8-0.9,4.9,3.3,7.8,3.9c0.6,1.2,0.7,2-0.9,2
		c-2,2.6-3.9,2.4-5.9,0c-1.3-1.5-2.7-2.8-4.9-3C396.6,728.9,397.5,727.2,399.2,727.1z"/>
	<path id="path59816" inkscape:connector-curvature="0" class="st63" d="M448.4,734.9c-0.6,0-1.3,0-2,0c-0.6,0.6-1.2,0.6-1.9,0.4
		c-2.1-1.4-4.5-2.4-6.4-4.2c-1.5-2.1-1.5-4.2,0.2-6.2c1.1-1.2-0.2-0.8-0.6-0.8c-0.1,0-1.1-1.1-0.8,0.2c0.6,4.3-2.4,4.2-5.2,4.4
		c-1.9,0.1-3.9,0.1-5.8,0.2c-0.7,0-1.4-0.2-2-0.7c-0.8-1.2-0.2-2.3,0.4-3.4c1.3-1.8,3-3,4.6-4.4c0.5-0.2,0.8-0.4,1.3-0.5
		c2.3-0.5,4.5,0,6.6,0.1c0.5-0.1,0.4-0.1-0.2-0.1c-0.8-0.1-1.8-0.2-1.9-1.2c-0.1-1.9,1.7-0.7,2.4-1.4c0.1-0.1,0.2-0.2,0.4-0.2
		c0.8-0.4,0.9-1.2,1.1-1.9c2.8,0.1,4-1.3,4-3.9c2.1-0.5,1.2-3.9,3.8-3.9c1.1,0.5,1.4,1.2,1.3,2.3c-2.3,4.2-3,8.4-0.9,12.9
		c0.5,1.1,0.9,2.3,0.4,3.2c-1.3,2.1-0.9,3.8,0.9,5.2C449.4,732.2,450.6,733.5,448.4,734.9L448.4,734.9z"/>
	<path id="path59818" inkscape:connector-curvature="0" class="st64" d="M437.6,717.2c-0.6,0.5-1.3,0.9-2.1,1.5
		c2,1.1,4.5-0.4,7.2,1.7c-4.9,1.3-9,0.5-13.1,0.7c-0.7-1.5-0.2-2.8,1.1-3.9C433.1,717.2,435.3,717.2,437.6,717.2L437.6,717.2z"/>
	<path id="path59820" inkscape:connector-curvature="0" class="st65" d="M416.9,717.3c0.6,0,1.3-0.1,1.9-0.1c2.6-0.5,5.5,0.4,8-0.7
		c1.2,1.8,0.5,3-1.3,3.6c-1.2,0.5-2.5,0.5-3.4,1.4c-0.4,0.2-0.7,0.5-1.2,0.6c-1.2,0.5-2.5,0.9-3.8,0.5c-0.4-0.2-0.6-0.6-0.6-1.1
		C417.2,720.1,416,718.6,416.9,717.3L416.9,717.3z"/>
	<path id="path59822" inkscape:connector-curvature="0" class="st66" d="M421.9,721.1c-0.7-1.5-0.1-2.1,1.4-2c2,0.1,3.7-0.2,3.4-2.7
		c1.4-0.1,2.8-0.5,3.9,0.8c0.1,1.4-0.4,2.7-1.1,3.9c-0.4,0-0.7,0-0.9,0C426.4,722.7,424.2,723,421.9,721.1L421.9,721.1z"/>
	<path id="path59824" inkscape:connector-curvature="0" class="st67" d="M403.3,679.7c0,0.7,0,1.4,0,2.1c-0.1,1.2-0.8,1.9-2,2.1
		C401.4,682.3,402,680.9,403.3,679.7L403.3,679.7z"/>
	<path id="path59826" inkscape:connector-curvature="0" class="st68" d="M447.4,709.4c-0.4-0.6-0.7-1.3-0.9-2c0-1.3,0-2.6,0-3.9
		c-1.3-3.4-1.3-3.4,1.8-9.7c-1.8-0.6-2.1,0.7-2.6,1.8c-0.6,1.2-0.8,3-2.8,1.9c-0.1-1.3-0.1-2.6-0.2-3.8c-0.8-1.1-1.2-2.4-1.2-3.7
		c0.8-5.3,1.1-5.3,5.7-3.4c1.7,0.7,3.2,1.8,4.9,2.3c1.3,0.5,1.7,1.9,2.5,2.8c1.9,3.3,4.4,6.5,3.9,10.8c0.7,1.4,0.5,2.8,0.6,4.4
		c-1.7,2.1-2.6,0.7-3.4-0.8c-0.5-0.9-0.4-2.5-1.9-2.1c-1.2,0.2-1.5,1.5-1.9,2.5c-0.5,1.2-0.2,2.6-1.4,3.4
		C449.1,710.2,448.1,710.2,447.4,709.4L447.4,709.4z"/>
	<path id="path59828" inkscape:connector-curvature="0" class="st69" d="M442.7,697.5c2.1-0.4,1.8-2,1.8-3.4c0-1.5,0.7-2.5,2.4-2.4
		c1.1,0,2.4-0.4,3.1,0.9c0.7,1.4,0.1,2.6-1.1,3.4c-2.6,1.9-2.6,4.6-2.5,7.5c-0.7-0.1-1.2,2.3-1.8,0.4c-0.5-1.5-0.7-3.1-1.9-4.3
		C442.7,698.8,442.7,698.2,442.7,697.5L442.7,697.5z"/>
	<path id="path59830" inkscape:connector-curvature="0" class="st70" d="M416.9,717.3c-0.5,1.3,3.1,2.6,0,3.9
		c-1.9,1.5-3.9,1.5-5.8,0c0-0.7,0-1.3,0-2C412.2,715.8,415,717.9,416.9,717.3z"/>
	<path id="path59832" inkscape:connector-curvature="0" class="st71" d="M452.3,689.7c-2.7,0.7-4.7-1.2-6.6-2.4
		c-3.8-2.3-3.1,0.2-3.2,2.4c-0.9,1.4-2.8,0.6-3.9,1.9v0.2c-1.7,0.6-3.2,0.7-4.9-0.1c-0.4-0.1-0.7-0.1-1.1-0.2
		c-1.9-1.5-4.3-2.3-6.3-3.8c-0.2-0.7-0.2-1.3,0.4-1.9c0-0.6,0-1.3,0-2c4.3-2,8.5-0.7,12.8,0c3.9-0.8,7.1,1.7,10.7,2
		c0.7,0.6,1.3,1.3,2,1.9C452.9,688.4,452.8,689.1,452.3,689.7z"/>
	<path id="path59834" inkscape:connector-curvature="0" class="st72" d="M426.8,685.8c0,0.6,0,1.3,0,2c1.3,1.7-0.4,2.5-1.1,3.7
		c-0.9,0.1-1.8,0.2-2.6,0.4c-1.4,0.5-2.8,0.9-4.2-0.1C421.6,689.8,423.7,687.1,426.8,685.8z"/>
	<path id="path59836" inkscape:connector-curvature="0" class="st73" d="M425.8,691.4c-1.3-1.7,1.5-2.1,1.1-3.7
		c3-0.2,4.9,0.9,5.9,3.7C430.3,691.5,428.1,691.5,425.8,691.4z"/>
	<path id="path59838" inkscape:connector-curvature="0" class="st16" d="M418.9,691.7c1.4,0,2.7,0,4.2,0.1c-1.2,1.1-2.5,1.8-4,2
		C418.9,693,418.9,692.4,418.9,691.7z"/>
	<path id="path59840" inkscape:connector-curvature="0" class="st74" d="M433.7,691.7c1.7,0,3.2,0,4.9,0.1c-0.6,0.4-1.3,0.7-1.9,0.9
		C435.6,692.7,434.4,692.8,433.7,691.7L433.7,691.7z"/>
	<path id="path59842" inkscape:connector-curvature="0" class="st75" d="M438.5,691.6c0.4-2.6,2.4-1.7,3.9-1.9c0,1.3,0,2.6,0,4
		C441.1,693,439.8,692.3,438.5,691.6L438.5,691.6z"/>
	<path id="path59844" inkscape:connector-curvature="0" class="st76" d="M458.2,690.8c-2.6-3-5.2-5.9-7.8-8.8c-0.1-2-1.9-2.7-3-4
		c-1.3-1.5-0.9-2.5,1.1-2.8c0.7,1.1,1.8,0.9,2.8,0.9c0,0.4,0,0.7,0.1,1.1c0.2,1.2,1.4,1.8,2,2.8c0.4,0,0.7,0,1.1,0
		c0.2,0.7-2.3,0.9-0.4,1.9c2.4,1.3,4.2,3,4.4,5.9C458.9,688.7,459,689.7,458.2,690.8z"/>
	<path id="path59846" inkscape:connector-curvature="0" class="st28" d="M453.2,679.8c-0.7-0.9-3.4-0.5-2-2.8
		C452.6,677.5,453.2,678.4,453.2,679.8z"/>
	<path id="path59848" inkscape:connector-curvature="0" class="st11" d="M414.9,766.5c1.4-0.2,2.4,0.5,3,1.8
		c-0.4,0.1-0.6,0.1-0.9,0.1C415.9,768.3,415,767.7,414.9,766.5L414.9,766.5z"/>
	<path id="path60718" inkscape:connector-curvature="0" class="st77" d="M448.4,734.9c0.1-0.6,0.5-1.7,0.4-1.8
		c-5.8-2.3-2.1-6.5-2.4-10.1c0.6-0.6,1.3-0.6,2.1-0.2c2.3,5.3,7.8,8,10.6,13.1c0.2,3.7-0.4,7.2-0.8,10.8l0,0c-0.6,0-1.3,0-1.9,0
		c-0.2-2.6,1.3-6.5-3.9-5.9C452.2,738.1,453.5,734.3,448.4,734.9z"/>
	<path id="path60720" inkscape:connector-curvature="0" class="st78" d="M444.1,746.5c1.1-3.2,1.1-6.4,0.4-9.6
		c1.9-0.6,1.2,1.5,2,1.9C445.8,741.3,448.5,745,444.1,746.5z"/>
	<path id="path60722" inkscape:connector-curvature="0" class="st79" d="M446.5,738.8c-0.7-0.6-1.3-1.3-2-1.9l0,0
		c-0.5-0.7-0.6-1.4,0.1-2.1c0.6,0,1.3,0.1,1.9,0.1C446.5,736.2,446.5,737.5,446.5,738.8L446.5,738.8z"/>
	<path id="path60724" inkscape:connector-curvature="0" class="st80" d="M432.7,762.4c-1.5-0.2-3-0.7-3.9-2c2.6-2.1,5.2-1.2,7.8,0
		c-0.4,0.9-0.6,2-0.9,3C434.6,763,433.7,762.7,432.7,762.4z"/>
	<path id="path60726" inkscape:connector-curvature="0" class="st81" d="M421.9,749.5c1.8,1.1,3.6,2.1,5.3,3.1
		c0.5,1.2,1.7,0.7,2.5,0.9c-0.4,2.1-1.9,3.4-3,5.1c-0.7,0.4-1.4,0.4-2.1,0.1c-2.4-1.7-5.3-0.7-7.7-2c-1.7-1.7-3.2-3.3-2.3-5.9
		C416.7,748.9,420,752.5,421.9,749.5L421.9,749.5z"/>
	<path id="path60728" inkscape:connector-curvature="0" class="st82" d="M424.8,758.4c0.7,0,1.3,0,2,0c1.9-1.3,2.5-4.5,5.8-3.9
		c-1.1,3.7,3.4,3.4,4,5.9c-2.6,0-5.2,0-7.8,0c-3.4,0.1-6.9,0.4-10-1.9c0.2-0.2,0.4-0.4,0.6-0.6C421.3,757.3,423.1,757.1,424.8,758.4
		L424.8,758.4z"/>
	<path id="path60730" inkscape:connector-curvature="0" class="st83" d="M432.5,754.5c-2.5,0.5-2.7,4.3-5.8,3.9
		c-0.6-2.6,0.9-3.8,3-4.7C430.8,753.5,431.9,753.3,432.5,754.5z"/>
	<path id="path60732" inkscape:connector-curvature="0" class="st84" d="M458.2,746.7c0-3.9,0-7.8,0-11.7c-1.4-1.8-1.5-3.9-1.4-6.1
		c0-5.7,0-11.4,0-17.2c0-1.5,0.2-3.1,1.3-4.3c0-1.7,0-3.3,0-4.9c1.2,0.7,0.9,1.9,0.9,3c1.1,9,0.1,18.2,0.5,27.2
		c0.1,2.1-0.5,4.2,0.5,6.3c0,0.6,0,1.3,0,1.9C458.1,742.3,460.2,745.1,458.2,746.7z"/>
	<path id="path60734" inkscape:connector-curvature="0" class="st85" d="M466.1,707.4c0.5,0.8,1.2,0.9,2,0.9c0,10.1,0,20.3,0,30.4
		c-2.8-0.2-1.1,4.2-3.9,3.9c0-11.7,0-23.6,0-35.4C464.7,707.4,465.3,707.4,466.1,707.4L466.1,707.4z"/>
	<path id="path60736" inkscape:connector-curvature="0" class="st86" d="M458.2,690.8c0-0.9,0-2,0-3c0.6,0,1.3,0,1.9,0
		c0,1.3,0,2.6,0,3.9c-0.6,0-1.3,0-1.9,0C458.2,691.4,458.2,691,458.2,690.8z"/>
	<path id="path60738" inkscape:connector-curvature="0" class="st34" d="M460.1,738.8c-1.4-1.3-0.9-3-0.9-4.6c0-9.6,0-19.2,0-28.8
		c0.4,0,0.6,0,0.9,0C460.1,716.5,460.1,727.7,460.1,738.8z"/>
	<path id="path60740" inkscape:connector-curvature="0" class="st87" d="M452.3,689.7c0-0.6,0-1.3,0-1.9c1.3,0,1.9,0.7,2,1.9
		c0,0.6,0,1.3,0,2C453.6,691,452.9,690.4,452.3,689.7z"/>
	<path id="path60742" inkscape:connector-curvature="0" class="st72" d="M439.6,683.8c-4.3,0-8.5,0-12.8,0c-2.6,1.1-5.2,1.1-7.8,0
		c0.4-2.6,2.4-1.8,3.9-2c4.6,0,9.1,0,13.8,0C437.6,682.6,438.6,683.2,439.6,683.8L439.6,683.8z"/>
	<path id="path60744" inkscape:connector-curvature="0" class="st72" d="M415,684.8c0.9-0.4,1.9-0.6,3-0.9c2,3.6,0,4.2-3,3.9
		C415,686.7,415,685.8,415,684.8z"/>
	<path id="path60746" inkscape:connector-curvature="0" class="st88" d="M406.1,732.9c0.8-0.5,0.9-1.2,0.9-2c1.3-0.6,2.6-1.3,3.9-2
		c0.8,0.7,1.1,1.8,0.9,2.8c0,0.5-0.2,0.9-0.4,1.4c-1.7,2.4-1.2,5.1-1.2,7.8c-0.2,4.3-0.1,8.5,2.5,12.2c0.6,0.9,1.1,2.1,0.1,3.2
		c-0.9,0.1-1.9,0-2.7,0.7c-1.4,1.3-1.8-0.7-2.7-1.1c-1.4-0.6-0.5-1.4,0.1-2.1c1.3-1.5,1.8-3.2-0.6-4.3c0-1.7,0-3.3,0-4.9
		C407.7,740.7,404.9,737,406.1,732.9z"/>
	<path id="path60748" inkscape:connector-curvature="0" class="st89" d="M413,756.5c-2.7-4.9-5-9.8-3.9-15.7c0.5-0.4,0.8-0.4,1.3,0
		c1.2,1.7,0.7,3.8,1.4,5.6c0.6,3.7,2.5,6.8,4.5,9.7c0.2,1.5,3,0.1,2.7,2.3l-0.1,0.1C416.6,758.9,414.8,757.8,413,756.5L413,756.5z"
		/>
	<path id="path60750" inkscape:connector-curvature="0" class="st90" d="M411.1,731.9c0-0.9,0-2,0-3c0-0.4,0-0.6,0-0.9
		c0.5-1.9,1.1-3.9,2.8-5.1c0.5-0.1,0.8-0.1,1.3,0.1c1.2,1.7,3.3,0.9,4.7,1.8c0.2,0.4,0.4,0.8,0.4,1.3c-0.8,2.1-3.6,1.8-4.6,3.6
		C414.4,731,413.4,732.8,411.1,731.9z"/>
	<path id="path60752" inkscape:connector-curvature="0" class="st91" d="M414,723.2c-0.2,2.1-1.7,3.4-3,4.9
		c-0.6-1.9-2.1-2.8-3.7-3.8c1.2-1.7,2.5-0.9,3.7-1.2C412.1,722.3,413,722.2,414,723.2z"/>
	<path id="path60754" inkscape:connector-curvature="0" class="st92" d="M414,723.2c-0.9,0-1.9,0-3,0c0-0.6,0-1.3,0-1.9
		c1.9,0,3.9,0,5.8,0c0,0.4,0,0.6,0,0.9c0,1.7-0.8,1.7-1.9,1.1C414.7,723.2,414.3,723.2,414,723.2z"/>
	<path id="path60756" inkscape:connector-curvature="0" class="st93" d="M458.2,711.3c0,5.9,0,11.7,0,17.7c-4,0.4-3.7-3-4.3-5.3
		c-0.1-0.6,0.4-1.2,0.5-1.9c0.2-1.4,1.5-3.6-0.6-4.2c-1.7-0.5-1.8,1.8-2.3,3.1c-0.6,1.3-0.6,3.6-3.1,2.3c-0.6,0-1.3,0-2,0
		c-3.2-3.1-2.7-9.7,0.9-13.8c0.9,0,1.9,0,3,0C453,710.1,455.8,709.5,458.2,711.3z"/>
	<path id="path60758" inkscape:connector-curvature="0" class="st94" d="M425.8,728c2-0.2,4.2-0.4,6.2-0.6c2.3-0.1,5,1.2,4-3.6
		c-0.2-1.3,3.7-0.7,6.3,0c-3.7,1.2-5.5,3.2-3.7,6.8c-0.2,0.6-0.6,0.7-1.1,0.4l0,0c-3.6-2.5-7.6-1.2-11.5-1.7
		C425.6,729,425.5,728.5,425.8,728L425.8,728z"/>
	<path id="path60760" inkscape:connector-curvature="0" class="st95" d="M425.8,728c0,0.4,0,0.7,0,1.1c-0.2,2.4-3.4,1.8-3.9,3.9
		l-0.2-0.1c-0.9,0.8-2.1,1.1-3.3,0.7c-1.9-0.9-2.4-3-3.3-4.6c0.5-3,3.6-1.5,4.9-3c-0.2,3.7,2.6,1.3,3.9,2
		C424.5,728,425.1,728,425.8,728L425.8,728z"/>
	<path id="path60762" inkscape:connector-curvature="0" class="st96" d="M423.8,728c-1.5,0.9-3.1,2-4.7,3c-1.1-2.1,1.2-3.3,0.8-5
		c0-0.4,0-0.6,0-0.9c0.9-1.2,2.3-1.2,3.6-0.9c0.5,0.1,0.9,0.5,1.3,0.8C424.5,726.1,424.2,727.1,423.8,728L423.8,728z"/>
	<path id="path60764" inkscape:connector-curvature="0" class="st97" d="M424.9,725.1c-0.4,0-0.7-0.1-1.1-0.1
		c-1.2-1.1-4.2-0.8-2.8-3.8c0.4,0,0.7,0,0.9,0c2.3,0,4.6,0,6.9,0C428.4,723.5,426.2,723.9,424.9,725.1z"/>
	<path id="path60766" inkscape:connector-curvature="0" class="st98" d="M437.5,731.1c0.4-0.1,0.7-0.2,1.1-0.4c2,1.2,4.7,1.4,5.9,4
		c0,0.7,0,1.4-0.1,2.1C442.1,735,439.8,733,437.5,731.1L437.5,731.1z"/>
	<path id="path60768" inkscape:connector-curvature="0" class="st99" d="M420.8,721.1c-0.1,2.1,2.4,2.1,2.8,3.8
		c-1.3,0-2.5,0.1-3.8,0.1c-1.4-1.1-5.1,3.1-5-2c0.8,0,1.5-0.2,1.9-1.1C418.2,721.9,419.5,721.5,420.8,721.1L420.8,721.1z"/>
	<path id="path60770" inkscape:connector-curvature="0" class="st100" d="M458.2,711.3c-2.6-0.8-6.1,2-7.8-2
		c-0.9-1.5-0.2-3.2,0.2-4.6c0.6-1.5,1.8-3.2,3.9-3c2.1,0.2,1.7,2,1.7,3.4c0.1,1.3,0.6,2.1,1.9,2.3
		C458.2,708.7,458.2,710,458.2,711.3z"/>
	<g id="g60778">
		<path id="path60772" inkscape:connector-curvature="0" class="st101" d="M175.2,694.8c-5.8-15.3-18.4-23.4-34.2-27.2
			c-21.2-5.1-44.9,5.1-55.1,24.3c-4.9,9.1-5,19.1-4.6,29.1c0,2,0.1,3.9,0,5.9c-1.3,24.4,15.8,41.8,36.3,46.9
			c23.4,5.8,49-5.1,57.4-26.8C181.7,730,181.6,711.9,175.2,694.8z M172.8,738.8c-4.2,20.3-26.3,34.5-48.5,31.2
			c-18.2-2.7-31.1-12.2-36.7-30.3c-2-6.3-1.1-12.9-1.1-19.5c-0.8-11.5,0.4-22.4,7.7-32.2c9.7-12.8,29.5-19.8,46.3-15.5
			c17.7,4.5,30,14.8,32.8,33.5C175,716.9,175,728,172.8,738.8L172.8,738.8z"/>
		<path id="path60774" inkscape:connector-curvature="0" class="st5" d="M140.6,672.6c-16.7-4.3-36.5,2.7-46.3,15.5
			c-7.4,9.6-8.5,20.5-7.7,32.2c0.1,6.5-0.8,13.2,1.1,19.5c5.6,18,18.5,27.5,36.7,30.3c22.1,3.3,44.4-11,48.5-31.2
			c2.1-10.8,2.1-22,0.5-32.8C170.5,687.4,158.2,677.1,140.6,672.6z M145.9,735.6c-0.1,9.5-6.4,15.9-15.4,16
			c-9.7,0-16.1-6.4-16.1-16.3c0-4.5,0-9.1,0-13.8l0,0c0-4.7,0-9.5,0-14.2c0.1-9.8,6.1-16,15.8-16.1c9.4-0.1,15.9,6.3,15.9,16
			C146,716.8,146,726.2,145.9,735.6L145.9,735.6z"/>
		<path id="path60776" inkscape:connector-curvature="0" class="st102" d="M130,691.2c-9.6,0.1-15.7,6.3-15.8,16.1
			c0,4.7,0,9.5,0,14.2l0,0c0,4.5,0,9.1,0,13.8c0,9.8,6.4,16.3,16.1,16.3c9.1,0,15.4-6.5,15.4-16c0.1-9.5,0.1-19,0-28.4
			C145.9,697.5,139.4,691.1,130,691.2L130,691.2z M140.2,736.8c-0.1,5.5-4.3,9.3-9.8,9.3c-5.6,0-10.3-3.8-10.4-8.9
			c-0.2-10.4-0.2-21,0-31.4c0.1-5.5,4.9-9.3,10.8-9c5.6,0.2,9.5,4.2,9.5,9.7c0,4.9,0,9.8,0,14.7
			C140.2,726.4,140.3,731.6,140.2,736.8L140.2,736.8z"/>
	</g>
	<g id="g60794">
		<path id="path60780" inkscape:connector-curvature="0" class="st103" d="M373,754.7L373,754.7C373,754.7,372.9,754.7,373,754.7
			L373,754.7z"/>
		<path id="path60782" inkscape:connector-curvature="0" class="st103" d="M379.8,738.9L379.8,738.9
			C379.8,738.8,379.8,738.9,379.8,738.9L379.8,738.9L379.8,738.9z"/>
		<path id="path60784" inkscape:connector-curvature="0" class="st103" d="M376.9,747.7L376.9,747.7
			C376.9,747.8,376.9,747.8,376.9,747.7L376.9,747.7z"/>
		<path id="path60786" inkscape:connector-curvature="0" class="st103" d="M379.8,703.3L379.8,703.3c-1.4-5.1-3.3-10.1-5.9-14.8
			c-0.4-2-1.9-3.3-3.2-4.9c-14-16.3-35.8-20.8-54.9-14.6c-16.9,5.5-28.4,16.9-31.4,34.8c-1.9,11-1.3,22.4-0.1,33.7
			c0.4,3.7,1.5,7.4,3.3,10.7c9,17.8,24.1,26.2,43.3,27.1c15.3,0.6,28.8-4.6,38.9-16.7c0.8-1.4,1.8-2.8,3.1-3.9
			c0.9-2.5,2.5-4.7,3.9-6.9c1.5-2.7,1.4-6.1,2.8-8.9C381.7,727.1,380.7,715.2,379.8,703.3L379.8,703.3z M376.2,735.9
			c-0.4,3-0.9,6.1-2.6,8.7c-0.4,1.4-0.7,3-1.9,4l0,0c-1.2,2-2.3,4.3-4,5.9c-10,10.7-22.1,16.3-36.9,15.9
			c-22.5-0.6-43.6-18.2-42.2-42.8c0.4-7.1-0.5-14.5,0.5-21.5c2.7-20.3,21.2-34.7,43.4-34.5c16.9,0.1,29.7,7.5,39,21.2
			c3.1,5.2,4.9,10.7,5,16.9C376.7,718.4,377.1,727.2,376.2,735.9L376.2,735.9z"/>
		<path id="path60788" inkscape:connector-curvature="0" class="st5" d="M373.5,744.6C373.5,744.5,373.6,744.5,373.5,744.6
			C373.6,744.5,373.6,744.5,373.5,744.6L373.5,744.6z"/>
		<path id="path60790" inkscape:connector-curvature="0" class="st5" d="M371.6,692.8c-9.5-13.6-22.2-21.1-39-21.2
			c-22.2-0.2-40.7,14.2-43.4,34.5c-0.9,7.1-0.1,14.4-0.5,21.5c-1.3,24.6,19.6,42.2,42.2,42.8c14.8,0.4,26.9-5.2,36.9-15.9
			c1.8-1.7,2.8-3.9,4-5.9l0,0c1.2-1.1,1.5-2.6,1.9-4l0,0v-0.1l0,0c1.7-2.6,2.3-5.6,2.6-8.7c0.9-8.8,0.5-17.6,0.4-26.2
			C376.5,703.5,374.7,698,371.6,692.8z M348,737.8c-0.4,8.7-7.4,14.1-16.4,13.9c-8.5-0.4-14.8-6.4-15-14.8c-0.1-5.1,0-10.1,0-15.2
			l0,0c0-5.2-0.1-10.4,0-15.7c0.4-8.5,6.5-14.4,15.2-14.6c8.7-0.2,15.8,5.3,16.1,13.6C348.5,715.8,348.5,726.8,348,737.8z"/>
		<path id="path60792" inkscape:connector-curvature="0" class="st104" d="M331.8,691.2c-8.8,0.2-15,6.1-15.2,14.6
			c-0.1,5.2,0,10.4,0,15.7l0,0c0,5.1-0.1,10.1,0,15.2c0.2,8.4,6.4,14.6,15,14.8c9,0.4,16-5.2,16.4-13.9c0.5-10.9,0.4-21.8,0-32.8
			C347.6,696.7,340.5,691,331.8,691.2z M342.4,736.8c-0.1,5.6-4.4,9.4-10,9.4c-5.7,0-10.4-4-10.4-9.5c-0.1-10.1-0.1-20.3,0-30.4
			c0.1-5.7,4.4-9.5,10.2-9.5c5.7,0,9.8,3.6,10.1,9.1c0.2,5.3,0,10.8,0,16.1C342.4,727.1,342.5,731.9,342.4,736.8z"/>
	</g>
	<path id="path61624" inkscape:connector-curvature="0" class="st105" d="M421.9,749.5c-1.3,6.8-4.5,1.2-6.9,1.1
		c-0.2-0.1-0.4-0.2-0.6-0.4c-2.6-3.6,0.6-5.5,2.3-7.7c0.6-0.4,1.3-0.5,1.9-0.2c0.9,0.5,0.6,1.7,1.2,2.3
		C420.5,746.2,421.2,747.8,421.9,749.5L421.9,749.5z"/>
	<path id="path61626" inkscape:connector-curvature="0" class="st98" d="M421.9,733c-0.1-2.7,2.8-2.4,3.9-3.9
		c3.9,0.7,8.4-2.1,11.7,2C432.1,730,426.8,729.6,421.9,733z"/>
	<path id="path61628" inkscape:connector-curvature="0" class="st106" d="M418,732.9c1.3,0,2.5,0,3.8,0c-0.7,1.9-1.4,3.9-2,5.8
		c-0.1,0.1-0.4,0.2-0.6,0.4c-0.1-0.1-0.4-0.2-0.5-0.4c-0.7-1.1-0.1-2.4-0.7-3.4c-0.5-0.8-1.5-1.4-0.9-2.6
		C417.3,732.5,417.6,732.5,418,732.9L418,732.9z"/>
	<path id="path61630" inkscape:connector-curvature="0" class="st107" d="M418.9,738.8c0.2,0,0.5,0,0.7-0.1c0,1.9,0.1,3.9,0.1,5.8
		c-0.8-0.4-0.8-1.1-0.9-1.8C418,741.4,417.8,740.1,418.9,738.8L418.9,738.8z"/>
	<path id="path61632" inkscape:connector-curvature="0" class="st63" d="M448.4,723.2c1.8-0.1,2-1.3,1.9-2.7c0-2.8,1.7-5.3,4.2-4.7
		c3.4,0.8,2.1,4.5,1.3,6.5c-1.3,3.4,0.1,5.1,2.4,6.9c0,2,0,3.9,0,5.9C454.1,731.7,449.1,729.2,448.4,723.2z"/>
	<path id="path61634" inkscape:connector-curvature="0" class="st108" d="M416.1,756.6c-2.4-3-5.3-5.6-5.1-9.8c-0.1-3-2-6.3,1.3-8.7
		c0.8-0.2,1.7-0.1,2.4,0.4c1.8,2.5-0.4,4.6-0.7,6.9c-0.4,2.1-0.4,3.8,0.9,5.3l0,0c-0.6,2.4,1.8,3.7,2.1,5.8
		C416.8,756.9,416.6,756.9,416.1,756.6z"/>
	<path id="path61636" inkscape:connector-curvature="0" class="st109" d="M416.1,756.6c0.4-0.1,0.6-0.1,0.9-0.2
		c2.5,0.9,5.9-1.8,7.6,2c-1.9,0-3.8,0-5.7,0C418,757.8,417,757.2,416.1,756.6z"/>
	<path id="path61638" inkscape:connector-curvature="0" class="st89" d="M418,732.9c-0.4,0-0.6,0-0.9,0c-1.8,1.3-3.7,2.4-6.1,2
		c-0.5-0.7-0.4-1.4,0.1-2c0-0.4,0-0.6,0-0.9c1.7-0.5,2.7-1.8,3.9-3C417,729.4,417.2,731.5,418,732.9L418,732.9z"/>
	<path id="path61640" inkscape:connector-curvature="0" class="st90" d="M411.1,732.9c0,0.7,0,1.3,0,2c0.9,2.3-0.4,4-1.1,5.9
		c-0.4,0-0.6,0-0.9,0C409.6,738.1,407.8,734.9,411.1,732.9L411.1,732.9z"/>
	<path id="path61642" inkscape:connector-curvature="0" class="st110" d="M410,740.8c0.1-2-0.1-4,1.1-5.9c1.8-1.3,3.6-2.4,5.9-1.9
		c0.6,0.6,1.3,1.2,1.9,1.8c-0.4,0.6-0.9,0.9-1.7,1.1c-2.1-0.1-3.2,1.5-4.4,2.8c-3.9,1.9-1.1,5.3-1.9,8
		C409.3,745,410.4,742.7,410,740.8L410,740.8z"/>
	<path id="path62470" inkscape:connector-curvature="0" class="st111" d="M414.9,750.6c-3.8-3.9-1.9-7.8,0-11.7
		c-0.4-0.5-0.2-0.9,0.4-1.2c1.2,0,1.9,0.6,2.4,1.5c0.4,1.3,0.4,2.5-0.6,3.6C416.6,745.5,412.9,747.2,414.9,750.6z"/>
	<path id="path62472" inkscape:connector-curvature="0" class="st112" d="M417,742.7c0-1.3,0-2.6,0-3.9c0.6-0.5,1.3-0.6,1.9-0.1
		c0,0,0,0.1,0.1,0.1c0,1.3-0.1,2.6-0.1,3.9C418.2,742.7,417.6,742.7,417,742.7z"/>
	<path id="path62474" inkscape:connector-curvature="0" class="st107" d="M418.9,738.7c-0.6,0-1.3,0-1.9,0.1c-0.6-0.4-1.3-0.7-2-0.9
		c-0.6-1.8,1.3-1.9,2-3c0.6,0,1.3-0.1,1.9-0.1C419.9,736.1,418.6,737.4,418.9,738.7z"/>
	<path id="path62476" inkscape:connector-curvature="0" class="st113" d="M416.9,734.9c0.1,1.5-1.4,1.9-2,3c0,0.4,0,0.6,0,0.9
		c-0.6,0-1.3,0-2,0C412.7,735.7,414,734.4,416.9,734.9z"/>
</g>
</svg>
